<?xml version="1.0" encoding="iso-8859-1"?>
<!-- Generator: Adobe Illustrator 27.0.0, SVG Export Plug-In . SVG Version: 6.00 Build 0)  -->
<svg version="1.1" id="Layer_1" xmlns="http://www.w3.org/2000/svg" xmlns:xlink="http://www.w3.org/1999/xlink" x="0px" y="0px"
	 viewBox="0 0 500 500" style="enable-background:new 0 0 500 500;" xml:space="preserve">
<g id="watermark_1_">
	<g>
		<g id="watermark" style="opacity:0.61;">
			<g>
				<g>
					<g>
						<g>
							<polygon style="fill:#FFFFFF;" points="213.765,461.172 208.204,474.017 205.268,474.017 199.726,461.172 202.938,461.172 
								206.846,470.347 210.81,461.172 							"/>
						</g>
						<g>
							<path style="fill:#FFFFFF;" d="M223.507,469.741h-7.469c0.275,1.23,1.321,1.982,2.826,1.982c1.046,0,1.798-0.312,2.477-0.954
								l1.523,1.651c-0.917,1.046-2.294,1.597-4.074,1.597c-3.413,0-5.634-2.147-5.634-5.083c0-2.954,2.257-5.083,5.267-5.083
								c2.899,0,5.138,1.945,5.138,5.12C223.562,469.191,223.526,469.503,223.507,469.741 M216.002,468.071h4.863
								c-0.202-1.248-1.138-2.055-2.422-2.055C217.139,466.016,216.204,466.805,216.002,468.071"/>
						</g>
						<g>
							<path style="fill:#FFFFFF;" d="M224.735,468.934c0-2.973,2.294-5.083,5.505-5.083c2.074,0,3.707,0.899,4.423,2.514
								l-2.22,1.193c-0.532-0.936-1.321-1.358-2.221-1.358c-1.45,0-2.587,1.009-2.587,2.734c0,1.725,1.138,2.734,2.587,2.734
								c0.899,0,1.688-0.404,2.221-1.358l2.22,1.211c-0.716,1.578-2.349,2.495-4.423,2.495
								C227.029,474.017,224.735,471.907,224.735,468.934"/>
						</g>
						<g>
							<path style="fill:#FFFFFF;" d="M242.828,473.393c-0.587,0.422-1.45,0.624-2.331,0.624c-2.33,0-3.688-1.193-3.688-3.542
								v-4.055h-1.523v-2.202h1.523v-2.404h2.863v2.404h2.459v2.202h-2.459v4.019c0,0.844,0.458,1.303,1.229,1.303
								c0.422,0,0.844-0.128,1.156-0.367L242.828,473.393z"/>
						</g>
					</g>
					<g>
						<path style="fill:#FFFFFF;" d="M262.474,463.997v2.643c-0.238-0.018-0.422-0.037-0.642-0.037
							c-1.578,0-2.624,0.862-2.624,2.753v4.661h-2.863v-9.873h2.734v1.303C259.776,464.493,260.951,463.997,262.474,463.997"/>
					</g>
					<g>
						<path style="fill:#FFFFFF;" d="M263.299,472.53l1.009-2.239c1.083,0.789,2.697,1.339,4.239,1.339
							c1.762,0,2.477-0.587,2.477-1.376c0-2.404-7.469-0.752-7.469-5.524c0-2.184,1.762-4,5.413-4c1.615,0,3.267,0.385,4.459,1.138
							l-0.918,2.257c-1.193-0.679-2.422-1.009-3.56-1.009c-1.761,0-2.44,0.66-2.44,1.468c0,2.367,7.468,0.734,7.468,5.45
							c0,2.147-1.78,3.982-5.45,3.982C266.492,474.017,264.437,473.411,263.299,472.53"/>
					</g>
					<g>
						<path style="fill:#FFFFFF;" d="M285.428,469.741h-7.469c0.275,1.23,1.321,1.982,2.826,1.982c1.046,0,1.798-0.312,2.477-0.954
							l1.523,1.651c-0.918,1.046-2.294,1.597-4.074,1.597c-3.413,0-5.634-2.147-5.634-5.083c0-2.954,2.257-5.083,5.267-5.083
							c2.9,0,5.138,1.945,5.138,5.12C285.484,469.191,285.447,469.503,285.428,469.741 M277.923,468.071h4.863
							c-0.202-1.248-1.138-2.055-2.422-2.055C279.061,466.016,278.125,466.805,277.923,468.071"/>
					</g>
					<g>
						<path style="fill:#FFFFFF;" d="M297.007,469.741h-7.469c0.275,1.23,1.321,1.982,2.826,1.982c1.046,0,1.798-0.312,2.477-0.954
							l1.523,1.651c-0.918,1.046-2.294,1.597-4.074,1.597c-3.413,0-5.634-2.147-5.634-5.083c0-2.954,2.257-5.083,5.267-5.083
							c2.899,0,5.138,1.945,5.138,5.12C297.062,469.191,297.025,469.503,297.007,469.741 M289.501,468.071h4.863
							c-0.202-1.248-1.138-2.055-2.422-2.055C290.639,466.016,289.703,466.805,289.501,468.071"/>
					</g>
					<g>
						<polygon style="fill:#FFFFFF;" points="303.208,470.145 301.831,471.503 301.831,474.017 298.969,474.017 298.969,460.401 
							301.831,460.401 301.831,468.108 306.016,464.144 309.429,464.144 305.318,468.328 309.796,474.017 306.327,474.017 						"/>
					</g>
					<g>
						<path style="fill:#FFFFFF;" d="M256.601,475.359L256.601,475.359l-2.86-2.86c-0.435,0.508-0.953,0.943-1.534,1.284
							c-0.092,0.069-0.186,0.136-0.283,0.199l3.027,3.027c0.456,0.456,1.195,0.456,1.65,0
							C257.057,476.554,257.057,475.815,256.601,475.359"/>
					</g>
					<g>
						<path style="fill:#FFFFFF;" d="M249.984,463.244c0.221-0.173,0.495-0.281,0.797-0.281c0.042,0,0.083,0.002,0.124,0.006
							c-0.214-0.156-0.478-0.249-0.764-0.249c-0.395,0-0.744,0.18-0.981,0.458c-0.051,0-0.1,0.006-0.151,0.008
							c0.039-0.077,0.064-0.162,0.064-0.255c0-0.234-0.143-0.434-0.346-0.519c0.087,0.126,0.138,0.279,0.138,0.445
							c0,0.122-0.031,0.237-0.081,0.341c-2.811,0.201-5.03,2.539-5.03,5.4c0,2.993,2.426,5.42,5.42,5.42
							c2.993,0,5.42-2.426,5.42-5.42C254.595,465.879,252.593,463.635,249.984,463.244 M247.983,464.656
							c0.435,0,0.844,0.112,1.199,0.309c0.374-0.245,0.82-0.387,1.299-0.387c0.711,0,1.348,0.312,1.784,0.806
							c-0.435-0.379-1.004-0.61-1.627-0.61c-0.449,0-0.87,0.12-1.234,0.329c-0.079,0.046-0.156,0.096-0.229,0.15
							c-0.065-0.048-0.133-0.093-0.204-0.134c-0.369-0.219-0.8-0.344-1.26-0.344c-0.3,0-0.588,0.054-0.854,0.152
							C247.196,464.754,247.578,464.656,247.983,464.656 M251.772,469.098c0.115,0.305,0.181,0.634,0.181,0.979
							c0,1.534-1.244,2.777-2.778,2.777c-1.534,0-2.777-1.243-2.777-2.777c0-0.345,0.066-0.674,0.181-0.979
							c-0.62-0.382-1.035-1.064-1.035-1.846c0-1.197,0.971-2.168,2.168-2.168c0.565,0,1.078,0.218,1.463,0.572
							c0.386-0.354,0.899-0.572,1.464-0.572c1.197,0,2.168,0.971,2.168,2.168C252.807,468.034,252.392,468.716,251.772,469.098"/>
					</g>
					<g>
						<path style="fill:#FFFFFF;" d="M251.666,467.061c0,0.497-0.404,0.901-0.901,0.901c-0.497,0-0.901-0.404-0.901-0.901
							s0.404-0.901,0.901-0.901c0.101,0,0.197,0.017,0.287,0.047c-0.03,0.062-0.045,0.132-0.045,0.204
							c0,0.273,0.221,0.494,0.494,0.494c0.05,0,0.099-0.008,0.146-0.022C251.66,466.941,251.666,467,251.666,467.061"/>
					</g>
					<g>
						<path style="fill:#FFFFFF;" d="M248.255,467.061c0,0.376-0.305,0.681-0.681,0.681c-0.376,0-0.681-0.305-0.681-0.681
							s0.305-0.681,0.681-0.681c0.076,0,0.149,0.013,0.217,0.035c-0.023,0.047-0.034,0.1-0.034,0.155
							c0,0.206,0.167,0.374,0.374,0.374c0.038,0,0.075-0.006,0.11-0.017C248.25,466.97,248.255,467.015,248.255,467.061"/>
					</g>
					<g>
						<g>
							<g>
								<rect x="242.908" y="467.83" style="fill:#FFFFFF;" width="0.616" height="0.616"/>
							</g>
							<g>
								<rect x="254.827" y="467.83" style="fill:#FFFFFF;" width="0.616" height="0.616"/>
							</g>
							<g>
								<path style="fill:#FFFFFF;" d="M255.205,468.082h-0.14c0-3.248-2.642-5.89-5.89-5.89c-3.248,0-5.89,2.642-5.89,5.89h-0.14
									c0-1.611,0.627-3.125,1.766-4.264c1.139-1.139,2.653-1.766,4.264-1.766c1.611,0,3.125,0.627,4.264,1.766
									C254.578,464.957,255.205,466.471,255.205,468.082"/>
							</g>
						</g>
						<g>
							<rect x="248.868" y="461.814" style="fill:#FFFFFF;" width="0.616" height="0.616"/>
						</g>
						<g>
							<rect x="244.95" y="462.052" style="fill:#FFFFFF;" width="8.45" height="0.14"/>
						</g>
						<g>
							<path style="fill:#FFFFFF;" d="M245.174,462.15c0,0.108-0.088,0.196-0.196,0.196c-0.108,0-0.196-0.088-0.196-0.196
								c0-0.108,0.088-0.196,0.196-0.196C245.086,461.954,245.174,462.042,245.174,462.15"/>
						</g>
						<g>
							<path style="fill:#FFFFFF;" d="M253.596,462.15c0,0.108-0.088,0.196-0.196,0.196c-0.108,0-0.196-0.088-0.196-0.196
								c0-0.108,0.088-0.196,0.196-0.196C253.509,461.954,253.596,462.042,253.596,462.15"/>
						</g>
					</g>
				</g>
				<g>
					<path style="fill:#FFFFFF;" d="M314.356,473.409c0,1.559-2.364,1.559-2.364,0C311.993,471.851,314.356,471.851,314.356,473.409
						z"/>
				</g>
				<g>
					<g>
						<g>
							<path style="fill:#FFFFFF;" d="M161.739,466.549l1.772,6.088l1.855-6.088h2.215l-2.823,8.14h-2.33l-0.837-2.396l-0.722-2.708
								l-0.722,2.708l-0.837,2.396h-2.33l-2.839-8.14h2.231l1.855,6.088l1.756-6.088H161.739z"/>
						</g>
						<g>
							<path style="fill:#FFFFFF;" d="M176.713,466.549l1.772,6.088l1.855-6.088h2.215l-2.823,8.14h-2.33l-0.837-2.396l-0.722-2.708
								l-0.722,2.708l-0.837,2.396h-2.33l-2.839-8.14h2.231l1.855,6.088l1.756-6.088H176.713z"/>
						</g>
						<g>
							<path style="fill:#FFFFFF;" d="M191.687,466.549l1.772,6.088l1.855-6.088h2.215l-2.823,8.14h-2.33l-0.837-2.396l-0.722-2.708
								l-0.722,2.708l-0.837,2.396h-2.33l-2.839-8.14h2.231l1.855,6.088l1.756-6.088H191.687z"/>
						</g>
					</g>
					<g>
						<path style="fill:#FFFFFF;" d="M200.908,473.52c0,1.559-2.364,1.559-2.364,0C198.545,471.962,200.908,471.962,200.908,473.52z
							"/>
					</g>
					<g>
						<path style="fill:#FFFFFF;" d="M322.71,473.409c-0.935,0.919-1.919,1.28-3.117,1.28c-2.346,0-4.3-1.411-4.3-4.282
							s1.953-4.284,4.3-4.284c1.149,0,2.035,0.329,2.921,1.199l-1.264,1.329c-0.476-0.428-1.066-0.64-1.623-0.64
							c-1.346,0-2.33,0.985-2.33,2.396c0,1.542,1.05,2.362,2.297,2.362c0.64,0,1.28-0.18,1.772-0.672L322.71,473.409z"/>
					</g>
					<g>
						<path style="fill:#FFFFFF;" d="M331.805,470.472c0,2.33-1.591,4.217-4.217,4.217c-2.626,0-4.201-1.887-4.201-4.217
							c0-2.314,1.609-4.217,4.185-4.217C330.149,466.255,331.805,468.158,331.805,470.472z M325.389,470.472
							c0,1.231,0.739,2.38,2.199,2.38c1.46,0,2.199-1.149,2.199-2.38c0-1.215-0.854-2.396-2.199-2.396
							C326.144,468.077,325.389,469.258,325.389,470.472z"/>
					</g>
					<g>
						<path style="fill:#FFFFFF;" d="M338.572,474.689v-4.332c0-1.068-0.559-2.035-1.658-2.035c-1.082,0-1.722,0.967-1.722,2.035
							v4.332h-2.003v-8.107h1.855l0.148,0.985c0.426-0.82,1.362-1.116,2.133-1.116c0.969,0,1.937,0.394,2.396,1.51
							c0.723-1.149,1.658-1.478,2.708-1.478c2.297,0,3.43,1.412,3.43,3.84v4.365h-2.003v-4.365c0-1.066-0.442-1.97-1.526-1.97
							c-1.082,0-1.756,0.935-1.756,2.003v4.332H338.572z"/>
					</g>
				</g>
			</g>
		</g>
		<g style="opacity:0.61;">
			<g>
				<g>
					<path style="fill:#FFFFFF;" d="M345.988,431.299c-0.006-1.224-0.959-2.121-2.189-2.14c-0.924-0.014-0.832,0.12-0.834-0.867
						c-0.003-1.097-0.007-2.194,0.003-3.292c0.003-0.379-0.112-0.691-0.362-0.976c-2.342-2.668-4.678-5.342-7.019-8.011
						c-0.12-0.137-0.275-0.244-0.414-0.366c-6.214,0-12.427,0-18.641,0c-0.794,0.293-1.14,0.868-1.138,1.709
						c0.01,3.748,0.004,7.496,0.004,11.243c0,0.556-0.003,0.589-0.55,0.551c-1.497-0.102-2.516,0.986-2.497,2.492
						c0.044,3.476,0.013,6.953,0.014,10.429c0.001,1.58,0.867,2.443,2.45,2.449c0.582,0.002,0.582,0.002,0.582,0.6
						c0,2.219-0.001,4.438,0.001,6.657c0.001,1.192,0.58,1.771,1.768,1.771c8.013,0.001,16.027,0.001,24.04,0
						c1.168,0,1.755-0.583,1.757-1.745c0.002-2.256,0-4.512,0.001-6.768c0-0.512,0.002-0.511,0.52-0.515
						c0.271-0.002,0.541,0.008,0.809-0.058c0.996-0.246,1.69-1.044,1.694-2.069C346.003,438.696,346.005,434.997,345.988,431.299z
						 M317.537,417.162c5.337,0,10.674,0,16.01,0c0.548,0,0.554,0.007,0.554,0.561c0.001,2.243-0.001,4.486,0.001,6.73
						c0.001,0.811,0.249,1.059,1.06,1.059c1.91,0.001,3.821,0,5.731,0.001c0.458,0,0.479,0.021,0.481,0.483
						c0.003,0.887,0.002,1.775,0,2.662c-0.001,0.477-0.024,0.498-0.504,0.499c-3.895,0.001-7.79,0-11.684,0
						c-3.882,0-7.765,0-11.647,0c-0.55,0-0.552-0.001-0.552-0.561c-0.001-3.624-0.001-7.247,0-10.871
						C316.987,417.166,316.991,417.162,317.537,417.162z M340.822,451.579c-3.883,0.001-7.766,0-11.65,0c-3.871,0-7.742,0-11.613,0
						c-0.572,0-0.574-0.002-0.574-0.579c-0.001-1.997-0.001-3.994,0.001-5.991c0-0.464,0.023-0.486,0.478-0.487
						c7.803-0.001,15.607-0.001,23.41,0c0.478,0,0.499,0.02,0.499,0.503c0.002,1.997,0.001,3.994,0,5.991
						C341.375,451.574,341.37,451.579,340.822,451.579z"/>
				</g>
				<g>
					<g>
						<rect x="327.418" y="417.053" style="fill:#FFFFFF;" width="1.757" height="1.054"/>
					</g>
					<g>
						<rect x="325.662" y="418.107" style="fill:#FFFFFF;" width="1.757" height="1.054"/>
					</g>
					<g>
						<rect x="327.418" y="419.161" style="fill:#FFFFFF;" width="1.757" height="1.054"/>
					</g>
					<g>
						<rect x="325.662" y="420.215" style="fill:#FFFFFF;" width="1.757" height="1.054"/>
					</g>
					<g>
						<rect x="327.418" y="421.269" style="fill:#FFFFFF;" width="1.757" height="1.054"/>
					</g>
					<g>
						<rect x="325.662" y="422.323" style="fill:#FFFFFF;" width="1.757" height="1.054"/>
					</g>
					<g>
						<rect x="327.418" y="423.378" style="fill:#FFFFFF;" width="1.757" height="1.054"/>
					</g>
					<g>
						<rect x="325.662" y="424.432" style="fill:#FFFFFF;" width="1.757" height="1.054"/>
					</g>
					<g>
						<rect x="327.418" y="425.486" style="fill:#FFFFFF;" width="1.757" height="1.054"/>
					</g>
					<g>
						<rect x="325.662" y="426.54" style="fill:#FFFFFF;" width="1.757" height="1.054"/>
					</g>
					<g>
						<rect x="327.418" y="427.594" style="fill:#FFFFFF;" width="1.757" height="1.054"/>
					</g>
					<g>
						<rect x="325.662" y="428.648" style="fill:#FFFFFF;" width="1.757" height="1.054"/>
					</g>
				</g>
			</g>
			<g>
				<path style="fill:#FFFFFF;" d="M187.637,431.299c-0.006-1.224-0.959-2.121-2.189-2.14c-0.924-0.014-0.832,0.12-0.834-0.867
					c-0.003-1.097-0.007-2.194,0.003-3.292c0.003-0.379-0.112-0.691-0.362-0.976c-2.342-2.668-4.678-5.342-7.019-8.011
					c-0.12-0.137-0.275-0.244-0.414-0.366c-6.214,0-12.427,0-18.641,0c-0.794,0.293-1.14,0.868-1.138,1.709
					c0.01,3.748,0.004,7.496,0.004,11.243c0,0.556-0.003,0.589-0.55,0.551c-1.497-0.102-2.516,0.986-2.497,2.492
					c0.044,3.476,0.013,6.953,0.014,10.429c0.001,1.58,0.867,2.443,2.45,2.449c0.582,0.002,0.582,0.002,0.582,0.6
					c0,2.219-0.001,4.438,0.001,6.657c0.001,1.192,0.58,1.771,1.768,1.771c8.013,0.001,16.027,0.001,24.04,0
					c1.168,0,1.755-0.583,1.757-1.745c0.002-2.256,0-4.512,0.001-6.768c0-0.512,0.002-0.511,0.52-0.515
					c0.271-0.002,0.541,0.008,0.809-0.058c0.996-0.246,1.69-1.044,1.694-2.069C187.652,438.696,187.655,434.997,187.637,431.299z
					 M159.187,417.162c5.337,0,10.674,0,16.01,0c0.548,0,0.554,0.007,0.554,0.561c0.001,2.243-0.001,4.486,0.001,6.73
					c0.001,0.811,0.249,1.059,1.06,1.059c1.91,0.001,3.821,0,5.731,0.001c0.458,0,0.479,0.021,0.481,0.483
					c0.003,0.887,0.002,1.775,0,2.662c-0.001,0.477-0.024,0.498-0.504,0.499c-3.895,0.001-7.79,0-11.684,0
					c-3.882,0-7.765,0-11.647,0c-0.55,0-0.552-0.001-0.552-0.561c-0.001-3.624-0.001-7.247,0-10.871
					C158.636,417.166,158.64,417.162,159.187,417.162z M182.472,451.579c-3.883,0.001-7.766,0-11.65,0c-3.871,0-7.742,0-11.613,0
					c-0.572,0-0.574-0.002-0.574-0.579c-0.001-1.997-0.001-3.994,0.001-5.991c0-0.464,0.023-0.486,0.478-0.487
					c7.803-0.001,15.607-0.001,23.41,0c0.478,0,0.499,0.02,0.499,0.503c0.002,1.997,0.001,3.994,0,5.991
					C183.024,451.574,183.019,451.579,182.472,451.579z"/>
			</g>
			<g>
				<path style="fill:#FFFFFF;" d="M159.779,440.669v-7.897h2.779c0.375,0,0.726,0.061,1.053,0.182
					c0.327,0.121,0.612,0.292,0.855,0.513c0.242,0.221,0.434,0.483,0.573,0.789c0.14,0.305,0.21,0.642,0.21,1.009
					c0,0.375-0.07,0.715-0.21,1.02c-0.14,0.305-0.331,0.568-0.573,0.789c-0.243,0.221-0.528,0.392-0.855,0.513
					c-0.327,0.121-0.678,0.182-1.053,0.182h-1.29v2.901H159.779z M162.58,436.356c0.39,0,0.684-0.111,0.882-0.331
					c0.199-0.22,0.298-0.474,0.298-0.761c0-0.14-0.024-0.276-0.072-0.408c-0.048-0.132-0.121-0.248-0.221-0.347
					c-0.099-0.099-0.223-0.178-0.37-0.237c-0.147-0.059-0.32-0.089-0.518-0.089h-1.312v2.173H162.58z"/>
				<path style="fill:#FFFFFF;" d="M166.308,432.771h1.731l3.177,5.294h0.088l-0.088-1.522v-3.772h1.478v7.897h-1.566l-3.353-5.592
					h-0.088l0.088,1.522v4.07h-1.467V432.771z"/>
				<path style="fill:#FFFFFF;" d="M177.922,436.334h3.872c0.022,0.089,0.04,0.195,0.055,0.32c0.014,0.125,0.022,0.25,0.022,0.375
					c0,0.507-0.077,0.985-0.231,1.434c-0.154,0.449-0.397,0.849-0.728,1.202c-0.353,0.375-0.776,0.666-1.268,0.871
					c-0.493,0.206-1.055,0.309-1.688,0.309c-0.574,0-1.114-0.103-1.622-0.309c-0.507-0.206-0.948-0.492-1.323-0.86
					c-0.375-0.367-0.673-0.803-0.894-1.307c-0.221-0.504-0.331-1.053-0.331-1.649c0-0.595,0.11-1.145,0.331-1.649
					c0.221-0.504,0.518-0.939,0.894-1.307c0.375-0.367,0.816-0.654,1.323-0.86c0.507-0.206,1.048-0.309,1.622-0.309
					c0.64,0,1.211,0.11,1.715,0.331c0.504,0.221,0.935,0.526,1.296,0.915l-1.025,1.004c-0.258-0.272-0.544-0.48-0.861-0.623
					c-0.316-0.143-0.695-0.215-1.136-0.215c-0.361,0-0.703,0.065-1.026,0.193c-0.324,0.129-0.607,0.311-0.85,0.546
					c-0.242,0.235-0.436,0.52-0.579,0.855c-0.143,0.335-0.215,0.708-0.215,1.119c0,0.412,0.072,0.785,0.215,1.12
					c0.143,0.335,0.338,0.62,0.584,0.855c0.246,0.235,0.531,0.418,0.855,0.546c0.323,0.129,0.669,0.193,1.037,0.193
					c0.419,0,0.773-0.061,1.064-0.182c0.29-0.121,0.538-0.278,0.744-0.469c0.148-0.132,0.275-0.3,0.381-0.502
					c0.106-0.202,0.189-0.428,0.248-0.678h-2.482V436.334z"/>
			</g>
			<g>
				<path style="fill:#FFFFFF;" d="M224.019,431.299c-0.006-1.224-0.959-2.121-2.189-2.14c-0.924-0.014-0.832,0.12-0.834-0.867
					c-0.003-1.097-0.007-2.194,0.003-3.292c0.003-0.379-0.112-0.691-0.362-0.976c-2.342-2.668-4.678-5.342-7.019-8.011
					c-0.12-0.137-0.275-0.244-0.414-0.366c-6.214,0-12.427,0-18.641,0c-0.794,0.293-1.14,0.868-1.138,1.709
					c0.01,3.748,0.004,7.496,0.004,11.243c0,0.556-0.003,0.589-0.55,0.551c-1.497-0.102-2.516,0.986-2.497,2.492
					c0.044,3.476,0.013,6.953,0.014,10.429c0.001,1.58,0.867,2.443,2.45,2.449c0.582,0.002,0.582,0.002,0.582,0.6
					c0,2.219-0.001,4.438,0.001,6.657c0.001,1.192,0.58,1.771,1.768,1.771c8.013,0.001,16.027,0.001,24.04,0
					c1.168,0,1.755-0.583,1.757-1.745c0.002-2.256,0-4.512,0.001-6.768c0-0.512,0.002-0.511,0.52-0.515
					c0.271-0.002,0.541,0.008,0.809-0.058c0.997-0.246,1.69-1.044,1.694-2.069C224.034,438.696,224.036,434.997,224.019,431.299z
					 M195.568,417.162c5.337,0,10.674,0,16.01,0c0.548,0,0.554,0.007,0.554,0.561c0.001,2.243-0.001,4.486,0.001,6.73
					c0.001,0.811,0.249,1.059,1.06,1.059c1.91,0.001,3.821,0,5.731,0.001c0.458,0,0.479,0.021,0.481,0.483
					c0.003,0.887,0.002,1.775,0,2.662c-0.001,0.477-0.024,0.498-0.504,0.499c-3.895,0.001-7.79,0-11.684,0
					c-3.882,0-7.765,0-11.647,0c-0.55,0-0.552-0.001-0.552-0.561c-0.001-3.624-0.001-7.247,0-10.871
					C195.018,417.166,195.022,417.162,195.568,417.162z M218.854,451.579c-3.883,0.001-7.766,0-11.65,0c-3.871,0-7.742,0-11.613,0
					c-0.572,0-0.574-0.002-0.574-0.579c-0.001-1.997-0.001-3.994,0.001-5.991c0-0.464,0.023-0.486,0.478-0.487
					c7.803-0.001,15.607-0.001,23.41,0c0.478,0,0.499,0.02,0.499,0.503c0.002,1.997,0.001,3.994,0,5.991
					C219.406,451.574,219.401,451.579,218.854,451.579z"/>
			</g>
			<g>
				<path style="fill:#FFFFFF;" d="M205.111,432.771h1.699l2.967,7.897h-1.644l-0.651-1.886h-3.044l-0.651,1.886h-1.643
					L205.111,432.771z M206.997,437.415l-0.706-1.974l-0.287-0.96h-0.088l-0.287,0.96l-0.706,1.974H206.997z"/>
				<path style="fill:#FFFFFF;" d="M211.331,434.536c-0.125,0-0.245-0.024-0.359-0.072c-0.114-0.048-0.213-0.114-0.298-0.199
					c-0.084-0.084-0.151-0.182-0.198-0.292c-0.048-0.11-0.072-0.232-0.072-0.364s0.024-0.254,0.072-0.364
					c0.048-0.11,0.114-0.208,0.198-0.292c0.084-0.084,0.184-0.151,0.298-0.198c0.114-0.048,0.233-0.072,0.359-0.072
					c0.257,0,0.478,0.09,0.662,0.27c0.184,0.181,0.276,0.399,0.276,0.656s-0.092,0.476-0.276,0.656
					C211.809,434.446,211.589,434.536,211.331,434.536z M210.615,440.669v-5.404h1.445v5.404H210.615z"/>
			</g>
			<g>
				<path style="fill:#FFFFFF;" d="M261.044,431.299c-0.006-1.224-0.959-2.121-2.189-2.14c-0.924-0.014-0.832,0.12-0.834-0.867
					c-0.003-1.097-0.007-2.194,0.003-3.292c0.003-0.379-0.112-0.691-0.362-0.976c-2.342-2.668-4.678-5.342-7.019-8.011
					c-0.12-0.137-0.275-0.244-0.414-0.366c-6.214,0-12.427,0-18.641,0c-0.794,0.293-1.14,0.868-1.138,1.709
					c0.01,3.748,0.004,7.496,0.004,11.243c0,0.556-0.003,0.589-0.55,0.551c-1.497-0.102-2.516,0.986-2.497,2.492
					c0.044,3.476,0.013,6.953,0.014,10.429c0.001,1.58,0.867,2.443,2.45,2.449c0.582,0.002,0.582,0.002,0.582,0.6
					c0,2.219-0.001,4.438,0.001,6.657c0.001,1.192,0.58,1.771,1.768,1.771c8.013,0.001,16.027,0.001,24.04,0
					c1.168,0,1.755-0.583,1.757-1.745c0.002-2.256,0-4.512,0.001-6.768c0-0.512,0.002-0.511,0.52-0.515
					c0.271-0.002,0.541,0.008,0.809-0.058c0.996-0.246,1.69-1.044,1.694-2.069C261.059,438.696,261.061,434.997,261.044,431.299z
					 M232.593,417.162c5.337,0,10.674,0,16.01,0c0.548,0,0.554,0.007,0.554,0.561c0.001,2.243-0.001,4.486,0.001,6.73
					c0.001,0.811,0.249,1.059,1.06,1.059c1.91,0.001,3.821,0,5.731,0.001c0.458,0,0.479,0.021,0.481,0.483
					c0.003,0.887,0.002,1.775,0,2.662c-0.001,0.477-0.024,0.498-0.504,0.499c-3.895,0.001-7.79,0-11.684,0
					c-3.882,0-7.765,0-11.647,0c-0.55,0-0.552-0.001-0.552-0.561c-0.001-3.624-0.001-7.247,0-10.871
					C232.042,417.166,232.047,417.162,232.593,417.162z M255.878,451.579c-3.883,0.001-7.766,0-11.65,0c-3.871,0-7.742,0-11.613,0
					c-0.572,0-0.574-0.002-0.574-0.579c-0.001-1.997-0.001-3.994,0.001-5.991c0-0.464,0.023-0.486,0.478-0.487
					c7.803-0.001,15.607-0.001,23.41,0c0.478,0,0.499,0.02,0.499,0.503c0.002,1.997,0.001,3.994,0,5.991
					C256.431,451.574,256.426,451.579,255.878,451.579z"/>
			</g>
			<g>
				<path style="fill:#FFFFFF;" d="M236.361,440.845c-0.338,0-0.662-0.048-0.971-0.143c-0.309-0.095-0.592-0.239-0.849-0.43
					c-0.257-0.191-0.481-0.425-0.673-0.7c-0.191-0.276-0.342-0.597-0.452-0.965l1.401-0.551c0.103,0.397,0.283,0.726,0.54,0.987
					c0.257,0.261,0.596,0.392,1.015,0.392c0.154,0,0.303-0.02,0.447-0.061c0.143-0.04,0.272-0.099,0.386-0.176
					s0.204-0.175,0.27-0.292c0.066-0.118,0.099-0.254,0.099-0.408c0-0.147-0.026-0.279-0.077-0.397
					c-0.051-0.117-0.138-0.227-0.259-0.331c-0.121-0.103-0.28-0.202-0.475-0.298c-0.195-0.095-0.435-0.195-0.722-0.298l-0.485-0.176
					c-0.213-0.073-0.429-0.173-0.645-0.298c-0.217-0.125-0.413-0.276-0.59-0.452c-0.177-0.176-0.322-0.384-0.436-0.623
					c-0.114-0.239-0.171-0.509-0.171-0.81c0-0.309,0.06-0.597,0.182-0.866c0.121-0.268,0.294-0.503,0.518-0.706
					c0.224-0.202,0.492-0.36,0.805-0.474s0.66-0.171,1.042-0.171c0.397,0,0.74,0.053,1.031,0.16
					c0.291,0.107,0.537,0.243,0.739,0.408c0.202,0.165,0.366,0.348,0.491,0.546c0.125,0.199,0.217,0.386,0.276,0.563l-1.312,0.551
					c-0.074-0.221-0.208-0.419-0.402-0.596c-0.195-0.176-0.462-0.265-0.8-0.265c-0.324,0-0.592,0.075-0.805,0.226
					c-0.213,0.151-0.32,0.348-0.32,0.59c0,0.235,0.103,0.436,0.309,0.601c0.206,0.165,0.533,0.325,0.982,0.48l0.497,0.165
					c0.316,0.111,0.605,0.237,0.866,0.381c0.261,0.143,0.485,0.314,0.673,0.513c0.187,0.199,0.331,0.425,0.43,0.678
					c0.1,0.254,0.149,0.546,0.149,0.877c0,0.412-0.083,0.767-0.248,1.064c-0.165,0.298-0.377,0.542-0.634,0.734
					c-0.258,0.191-0.548,0.335-0.872,0.43C236.986,440.797,236.67,440.845,236.361,440.845z"/>
				<path style="fill:#FFFFFF;" d="M239.516,432.771h1.61l1.633,4.754l0.287,1.015h0.088l0.309-1.015l1.699-4.754h1.61l-2.879,7.897
					h-1.566L239.516,432.771z"/>
				<path style="fill:#FFFFFF;" d="M251.097,436.334h3.871c0.022,0.089,0.04,0.195,0.055,0.32c0.015,0.125,0.023,0.25,0.023,0.375
					c0,0.507-0.078,0.985-0.232,1.434c-0.154,0.449-0.397,0.849-0.728,1.202c-0.353,0.375-0.775,0.666-1.268,0.871
					c-0.493,0.206-1.055,0.309-1.688,0.309c-0.574,0-1.114-0.103-1.621-0.309c-0.507-0.206-0.949-0.492-1.324-0.86
					c-0.375-0.367-0.673-0.803-0.894-1.307c-0.22-0.504-0.331-1.053-0.331-1.649c0-0.595,0.11-1.145,0.331-1.649
					c0.221-0.504,0.518-0.939,0.894-1.307c0.375-0.367,0.816-0.654,1.324-0.86c0.507-0.206,1.047-0.309,1.621-0.309
					c0.64,0,1.211,0.11,1.715,0.331c0.504,0.221,0.936,0.526,1.296,0.915l-1.026,1.004c-0.257-0.272-0.544-0.48-0.861-0.623
					c-0.316-0.143-0.694-0.215-1.136-0.215c-0.36,0-0.702,0.065-1.026,0.193c-0.323,0.129-0.607,0.311-0.849,0.546
					c-0.243,0.235-0.436,0.52-0.579,0.855c-0.143,0.335-0.215,0.708-0.215,1.119c0,0.412,0.072,0.785,0.215,1.12
					c0.143,0.335,0.338,0.62,0.585,0.855c0.246,0.235,0.531,0.418,0.854,0.546c0.324,0.129,0.669,0.193,1.037,0.193
					c0.419,0,0.774-0.061,1.064-0.182c0.29-0.121,0.539-0.278,0.745-0.469c0.147-0.132,0.274-0.3,0.38-0.502
					c0.107-0.202,0.189-0.428,0.248-0.678h-2.482V436.334z"/>
			</g>
			<g>
				<path style="fill:#FFFFFF;" d="M297.3,431.299c-0.006-1.224-0.959-2.121-2.189-2.14c-0.924-0.014-0.832,0.12-0.834-0.867
					c-0.003-1.097-0.007-2.194,0.003-3.292c0.003-0.379-0.112-0.691-0.362-0.976c-2.342-2.668-4.678-5.342-7.019-8.011
					c-0.12-0.137-0.275-0.244-0.414-0.366c-6.214,0-12.427,0-18.641,0c-0.794,0.293-1.14,0.868-1.138,1.709
					c0.01,3.748,0.004,7.496,0.004,11.243c0,0.556-0.003,0.589-0.55,0.551c-1.497-0.102-2.516,0.986-2.497,2.492
					c0.044,3.476,0.013,6.953,0.014,10.429c0.001,1.58,0.867,2.443,2.45,2.449c0.582,0.002,0.582,0.002,0.582,0.6
					c0,2.219-0.001,4.438,0.001,6.657c0.001,1.192,0.58,1.771,1.768,1.771c8.013,0.001,16.027,0.001,24.04,0
					c1.168,0,1.755-0.583,1.757-1.745c0.002-2.256,0-4.512,0.001-6.768c0-0.512,0.002-0.511,0.52-0.515
					c0.271-0.002,0.541,0.008,0.809-0.058c0.996-0.246,1.69-1.044,1.694-2.069C297.315,438.696,297.318,434.997,297.3,431.299z
					 M268.85,417.162c5.337,0,10.674,0,16.01,0c0.548,0,0.554,0.007,0.554,0.561c0.001,2.243-0.001,4.486,0.001,6.73
					c0.001,0.811,0.249,1.059,1.06,1.059c1.91,0.001,3.821,0,5.731,0.001c0.458,0,0.479,0.021,0.481,0.483
					c0.003,0.887,0.002,1.775,0,2.662c-0.001,0.477-0.024,0.498-0.504,0.499c-3.895,0.001-7.79,0-11.684,0
					c-3.882,0-7.765,0-11.647,0c-0.55,0-0.552-0.001-0.552-0.561c-0.001-3.624-0.001-7.247,0-10.871
					C268.299,417.166,268.303,417.162,268.85,417.162z M292.135,451.579c-3.883,0.001-7.766,0-11.65,0c-3.871,0-7.742,0-11.613,0
					c-0.572,0-0.574-0.002-0.574-0.579c-0.001-1.997-0.001-3.994,0.001-5.991c0-0.464,0.023-0.486,0.478-0.487
					c7.803-0.001,15.607-0.001,23.41,0c0.478,0,0.499,0.02,0.499,0.503c0.001,1.997,0.001,3.994,0,5.991
					C292.687,451.574,292.682,451.579,292.135,451.579z"/>
			</g>
			<g>
				<path style="fill:#FFFFFF;" d="M272.966,434.183v1.831h3.165v1.412h-3.165v1.831h3.518v1.412h-5.007v-7.897h5.007v1.412H272.966
					z"/>
				<path style="fill:#FFFFFF;" d="M277.852,440.669v-7.897h2.779c0.375,0,0.726,0.061,1.053,0.182
					c0.327,0.121,0.612,0.292,0.855,0.513c0.243,0.221,0.434,0.483,0.574,0.789c0.14,0.305,0.209,0.642,0.209,1.009
					c0,0.375-0.07,0.715-0.209,1.02c-0.14,0.305-0.331,0.568-0.574,0.789c-0.243,0.221-0.528,0.392-0.855,0.513
					c-0.327,0.121-0.678,0.182-1.053,0.182h-1.29v2.901H277.852z M280.653,436.356c0.389,0,0.684-0.111,0.882-0.331
					c0.199-0.22,0.298-0.474,0.298-0.761c0-0.14-0.024-0.276-0.072-0.408c-0.048-0.132-0.121-0.248-0.221-0.347
					c-0.099-0.099-0.222-0.178-0.37-0.237c-0.147-0.059-0.32-0.089-0.518-0.089h-1.312v2.173H280.653z"/>
				<path style="fill:#FFFFFF;" d="M286.797,440.845c-0.338,0-0.662-0.048-0.971-0.143c-0.309-0.095-0.592-0.239-0.849-0.43
					c-0.257-0.191-0.482-0.425-0.673-0.7c-0.191-0.276-0.342-0.597-0.452-0.965l1.401-0.551c0.103,0.397,0.283,0.726,0.541,0.987
					c0.257,0.261,0.595,0.392,1.015,0.392c0.154,0,0.303-0.02,0.447-0.061c0.143-0.04,0.272-0.099,0.386-0.176
					c0.114-0.077,0.204-0.175,0.27-0.292c0.066-0.118,0.1-0.254,0.1-0.408c0-0.147-0.026-0.279-0.077-0.397
					c-0.051-0.117-0.138-0.227-0.259-0.331c-0.121-0.103-0.279-0.202-0.474-0.298c-0.195-0.095-0.436-0.195-0.723-0.298
					l-0.485-0.176c-0.213-0.073-0.428-0.173-0.645-0.298c-0.217-0.125-0.414-0.276-0.59-0.452c-0.176-0.176-0.322-0.384-0.436-0.623
					c-0.114-0.239-0.171-0.509-0.171-0.81c0-0.309,0.061-0.597,0.182-0.866c0.121-0.268,0.294-0.503,0.518-0.706
					c0.224-0.202,0.493-0.36,0.805-0.474c0.312-0.114,0.66-0.171,1.042-0.171c0.397,0,0.741,0.053,1.031,0.16
					c0.29,0.107,0.537,0.243,0.739,0.408c0.202,0.165,0.365,0.348,0.491,0.546c0.125,0.199,0.217,0.386,0.276,0.563l-1.312,0.551
					c-0.074-0.221-0.208-0.419-0.403-0.596c-0.195-0.176-0.462-0.265-0.799-0.265c-0.324,0-0.592,0.075-0.805,0.226
					c-0.213,0.151-0.32,0.348-0.32,0.59c0,0.235,0.103,0.436,0.309,0.601c0.206,0.165,0.533,0.325,0.982,0.48l0.496,0.165
					c0.316,0.111,0.605,0.237,0.866,0.381c0.261,0.143,0.485,0.314,0.673,0.513c0.187,0.199,0.331,0.425,0.43,0.678
					c0.099,0.254,0.149,0.546,0.149,0.877c0,0.412-0.083,0.767-0.248,1.064c-0.165,0.298-0.377,0.542-0.634,0.734
					c-0.258,0.191-0.548,0.335-0.872,0.43C287.422,440.797,287.105,440.845,286.797,440.845z"/>
			</g>
			<g>
				<path style="fill:#FFFFFF;" d="M321.394,439.168l4.004-4.985h-3.827v-1.412h5.559v1.5l-3.96,4.985h4.004v1.412h-5.779V439.168z"
					/>
				<path style="fill:#FFFFFF;" d="M328.409,432.771h1.489v7.897h-1.489V432.771z"/>
				<path style="fill:#FFFFFF;" d="M331.486,440.669v-7.897h2.779c0.375,0,0.726,0.061,1.053,0.182
					c0.327,0.121,0.612,0.292,0.855,0.513s0.434,0.483,0.574,0.789c0.14,0.305,0.209,0.642,0.209,1.009
					c0,0.375-0.07,0.715-0.209,1.02c-0.14,0.305-0.331,0.568-0.574,0.789c-0.243,0.221-0.528,0.392-0.855,0.513
					c-0.327,0.121-0.678,0.182-1.053,0.182h-1.29v2.901H331.486z M334.288,436.356c0.389,0,0.684-0.111,0.882-0.331
					c0.199-0.22,0.298-0.474,0.298-0.761c0-0.14-0.024-0.276-0.072-0.408c-0.048-0.132-0.121-0.248-0.221-0.347
					c-0.099-0.099-0.222-0.178-0.37-0.237c-0.147-0.059-0.32-0.089-0.518-0.089h-1.312v2.173H334.288z"/>
			</g>
		</g>
		<g style="opacity:0.61;">
			<path style="fill:#FFFFFF;" d="M300.133,433.27h9.067v2.242h-9.067V433.27z M300.133,437.136h9.067v2.243h-9.067V437.136z"/>
		</g>
	</g>
	<g style="opacity:0.61;">
		<path style="fill:#FFFFFF;" d="M156.756,478.878h1.607c1.263,0,2.114,0.812,2.114,1.974c0,1.161-0.851,1.973-2.114,1.973h-1.607
			V478.878z M158.34,482.464c1.049,0,1.725-0.665,1.725-1.612c0-0.947-0.677-1.613-1.725-1.613h-1.167v3.225H158.34z"/>
		<path style="fill:#FFFFFF;" d="M165.139,480.851c0-1.15,0.879-2.007,2.075-2.007c1.184,0,2.069,0.851,2.069,2.007
			c0,1.156-0.885,2.007-2.069,2.007C166.019,482.858,165.139,482.002,165.139,480.851z M168.866,480.851
			c0-0.942-0.705-1.635-1.652-1.635c-0.953,0-1.663,0.693-1.663,1.635c0,0.941,0.71,1.635,1.663,1.635
			C168.162,482.486,168.866,481.793,168.866,480.851z"/>
		<path style="fill:#FFFFFF;" d="M179.596,478.878l-1.331,3.947h-0.44l-1.156-3.366l-1.161,3.366h-0.434l-1.331-3.947h0.429
			l1.139,3.394l1.178-3.394h0.389l1.161,3.411l1.156-3.411H179.596z"/>
		<path style="fill:#FFFFFF;" d="M187.731,478.878v3.947h-0.344l-2.537-3.202v3.202h-0.417v-3.947h0.344l2.543,3.203v-3.203H187.731
			z"/>
		<path style="fill:#FFFFFF;" d="M193.093,478.878h0.417v3.586h2.21v0.361h-2.627V478.878z"/>
		<path style="fill:#FFFFFF;" d="M200.061,480.851c0-1.15,0.879-2.007,2.075-2.007c1.184,0,2.069,0.851,2.069,2.007
			c0,1.156-0.885,2.007-2.069,2.007C200.941,482.858,200.061,482.002,200.061,480.851z M203.788,480.851
			c0-0.942-0.705-1.635-1.652-1.635c-0.953,0-1.663,0.693-1.663,1.635c0,0.941,0.71,1.635,1.663,1.635
			C203.083,482.486,203.788,481.793,203.788,480.851z"/>
		<path style="fill:#FFFFFF;" d="M211.636,481.77h-2.199l-0.474,1.054h-0.434l1.804-3.947h0.412l1.804,3.947h-0.44L211.636,481.77z
			 M211.484,481.432l-0.947-2.12l-0.947,2.12H211.484z"/>
		<path style="fill:#FFFFFF;" d="M217.28,478.878h1.607c1.263,0,2.114,0.812,2.114,1.974c0,1.161-0.851,1.973-2.114,1.973h-1.607
			V478.878z M218.864,482.464c1.049,0,1.725-0.665,1.725-1.612c0-0.947-0.677-1.613-1.725-1.613h-1.167v3.225H218.864z"/>
		<path style="fill:#FFFFFF;" d="M234.041,481.77h-2.199l-0.474,1.054h-0.434l1.804-3.947h0.412l1.804,3.947h-0.44L234.041,481.77z
			 M233.889,481.432l-0.947-2.12l-0.947,2.12H233.889z"/>
		<path style="fill:#FFFFFF;" d="M239.685,478.878h0.417v3.586h2.21v0.361h-2.627V478.878z"/>
		<path style="fill:#FFFFFF;" d="M247.082,478.878h0.417v3.586h2.21v0.361h-2.627V478.878z"/>
		<path style="fill:#FFFFFF;" d="M260.449,479.239v1.551h2.041v0.361h-2.041v1.675h-0.417v-3.947h2.706v0.361H260.449z"/>
		<path style="fill:#FFFFFF;" d="M267.678,478.878h0.417v3.947h-0.417V478.878z"/>
		<path style="fill:#FFFFFF;" d="M273.456,478.878h0.417v3.586h2.21v0.361h-2.627V478.878z"/>
		<path style="fill:#FFFFFF;" d="M283.644,482.464v0.361h-2.791v-3.947h2.706v0.361h-2.289v1.404h2.041v0.355h-2.041v1.466H283.644z
			"/>
		<path style="fill:#FFFFFF;" d="M294.672,479.239v1.551h2.041v0.361h-2.041v1.675h-0.417v-3.947h2.706v0.361H294.672z"/>
		<path style="fill:#FFFFFF;" d="M301.5,480.851c0-1.15,0.879-2.007,2.075-2.007c1.184,0,2.069,0.851,2.069,2.007
			c0,1.156-0.885,2.007-2.069,2.007C302.379,482.858,301.5,482.002,301.5,480.851z M305.226,480.851
			c0-0.942-0.705-1.635-1.652-1.635c-0.953,0-1.663,0.693-1.663,1.635c0,0.941,0.71,1.635,1.663,1.635
			C304.522,482.486,305.226,481.793,305.226,480.851z"/>
		<path style="fill:#FFFFFF;" d="M313.351,482.825l-0.902-1.269c-0.102,0.011-0.203,0.017-0.316,0.017h-1.06v1.252h-0.417v-3.947
			h1.477c1.004,0,1.613,0.507,1.613,1.353c0,0.62-0.327,1.054-0.902,1.24l0.964,1.353H313.351z M313.328,480.231
			c0-0.632-0.417-0.992-1.207-0.992h-1.048v1.979h1.048C312.911,481.218,313.328,480.851,313.328,480.231z"/>
		<path style="fill:#FFFFFF;" d="M322.907,478.878v3.947h-0.4v-3.158l-1.551,2.656h-0.197l-1.551-2.639v3.14h-0.4v-3.947h0.344
			l1.714,2.926l1.697-2.926H322.907z"/>
		<path style="fill:#FFFFFF;" d="M330.744,481.77h-2.199l-0.473,1.054h-0.434l1.804-3.947h0.411l1.804,3.947h-0.44L330.744,481.77z
			 M330.592,481.432l-0.947-2.12l-0.947,2.12H330.592z"/>
		<path style="fill:#FFFFFF;" d="M336.957,479.239h-1.387v-0.361h3.192v0.361h-1.387v3.586h-0.417V479.239z"/>
		<path style="fill:#FFFFFF;" d="M343.063,482.346l0.164-0.321c0.282,0.276,0.784,0.479,1.302,0.479c0.739,0,1.06-0.31,1.06-0.699
			c0-1.083-2.43-0.417-2.43-1.877c0-0.581,0.451-1.083,1.455-1.083c0.446,0,0.908,0.13,1.224,0.35l-0.141,0.333
			c-0.338-0.22-0.733-0.327-1.083-0.327c-0.722,0-1.043,0.321-1.043,0.716c0,1.083,2.43,0.429,2.43,1.866
			c0,0.581-0.462,1.077-1.472,1.077C343.937,482.858,343.356,482.65,343.063,482.346z"/>
	</g>
</g>
<g>
</g>
<g>
	<g>
		<path style="fill-rule:evenodd;clip-rule:evenodd;fill:#312782;" d="M186.015,265.444h35.775l-2.745,12.819h33.543l6.019-28.105
			h-90.045l-32.091,28.105h34.906L186.015,265.444L186.015,265.444z M260.508,241.282l9.988-46.647h-38.539l-53.261,46.647h34.906
			l16.447-14.405l-3.085,14.405H260.508z"/>
		<path style="fill-rule:evenodd;clip-rule:evenodd;fill:#312782;" d="M278.109,194.635l-9.988,46.647h73.892l-4.29-4.417
			l35.752-24.909h18.658l-6.204,29.326H422.3l6.28-29.326h41.965l3.709-17.321h-123.13l-46.179,32.238l6.904-32.238H278.109
			L278.109,194.635z M266.22,250.157l-6.02,28.105h33.739l6.017-28.105H266.22L266.22,250.157z M306.454,250.157l29.982,28.105
			h41.496l-27.299-28.105H306.454L306.454,250.157z M384.052,250.157l-5.911,27.949l36.239,0.156l6.019-28.105H384.052z"/>
		<g>
			<path style="fill-rule:evenodd;clip-rule:evenodd;fill:#312782;" d="M139.105,250.212l1.962-7.093h6.491l-1.963,7.093H139.105
				L139.105,250.212z M126.47,236.077l-1.449,5.236h23.036l1.449-5.236h-6.471l-6.547,3.359l-3.528-3.359H126.47L126.47,236.077z
				 M133.094,243.13l0.89,2.901h2.226l2.449-2.901H133.094L133.094,243.13z M122.559,250.212l1.963-7.093h6.491l-1.963,7.093
				H122.559z"/>
			<path style="fill-rule:evenodd;clip-rule:evenodd;fill:#312782;" d="M103.614,250.212l1.963-7.093h6.49l-1.963,7.093H103.614
				L103.614,250.212z M101.172,236.077l-1.449,5.236h19.334l1.449-5.236H101.172z"/>
			<path style="fill-rule:evenodd;clip-rule:evenodd;fill:#312782;" d="M175.177,226.893h-51.924
				c-2.105,2.385-4.811,4.516-8.023,6.195l55.652,0.069L175.177,226.893L175.177,226.893z M198.036,193.555h-42.392h-42.397
				c-3.424,0-2.952,4.049,0.512,5.143c0.985,0.311,1.917,0.651,2.796,1.017h77.213L198.036,193.555L198.036,193.555z
				 M198.792,201.89h-78.054c2.746,1.773,4.716,3.88,5.982,6.16h67.818L198.792,201.89L198.792,201.89z M186.509,210.224h-58.812
				c0.701,1.998,0.919,4.082,0.693,6.16h53.809L186.509,210.224L186.509,210.224z M187.313,218.559h-59.321
				c-0.551,2.134-1.558,4.221-2.981,6.16h58.059L187.313,218.559z"/>
			<path style="fill-rule:evenodd;clip-rule:evenodd;fill:#312782;" d="M39.267,254.394c-1.669-2.151-3.21-4.406-4.612-6.753
				c3.356-2.223,6.42-4.885,8.235-6.85c1.302-1.411,2.733-3.793,6.225-5.588c3.686,3.127,7.373,7.108,11.058,10.232
				c1.19,1.008,0.845,0.974,2.196,0.218c1.038-0.581,2.141-1.751,3.24-2.085c1.67,5.739,5.254,10.689,11.014,14.463
				c-0.111,0.396-0.199,0.793-0.235,1.189c-4.665-2.905-8.379-4.415-12.246-6.766c-3.413-2.074-6.947-4.992-11.36-7.416
				c-0.971-0.532-3.001,1.873-5.583,4.063C45.339,250.678,41.689,252.607,39.267,254.394L39.267,254.394z M92.141,146.584
				c-36.85,0-66.905,30.055-66.905,66.905c0,10.897,2.63,21.197,7.286,30.303c2.955-2.265,6.915-5.151,8.949-7.172
				c2.667-2.651,4.922-5.99,5.939-5.901c2.474,0.216,5.06,2.777,7.485,4.406c2.424,1.63,3.841,3.187,5.675,4.804
				c0.867,0.764,2.852-1.471,3.966-2.821c-0.477-9.029,2.844-19.409,9.201-29.97c1.683-2.798,0.836-5.3-0.457-9.019
				c-1.898,3.006-4.56,4.748-8.892,5.222c-3.769,2.503-3.158,5.844-4.332,9.019c-1.519,2.612-5.945,1.891-6.156-1.898
				c-0.549-9.852,3.087-17.402,8.837-24.252c0.819-0.975,0.772-3.555,0.45-5.605c-0.472-3.003,3.893,4.588,5.381,5.094
				c12.127,4.128,17.093,10.935,22.496,33.545c1.285,5.377,4.272,9.513,10.326,9.284c16.151-0.61,24.196-20.077,1.709-26.638
				c-6.719-1.96-2.548-14.132,7.972-14.132c9.613,0,27.527,0.099,42.853,0.102C143.834,163.663,119.92,146.584,92.141,146.584
				L92.141,146.584z M71.234,182.469c-1.066-0.096-1.856-1.04-1.764-2.105c0.091-1.066,1.03-1.854,2.096-1.758
				c15.932,1.435,20.217,14.062,24.255,25.968c2.466,7.271,4.834,14.25,9.767,17.432c0.894,0.577,1.152,1.772,0.578,2.667
				c-0.575,0.896-1.767,1.154-2.661,0.578c-6.069-3.915-8.649-11.518-11.336-19.439C88.526,195.07,84.661,183.677,71.234,182.469
				L71.234,182.469z M135.692,264.204c-21.559-10.241-36.393,3.318-47.423-0.01c-1.049-0.317-2.906-1.938-3.878-2.302
				c0.06,2.895-0.494,5.174-2.815,5.67c-3.394,0.725-12.019-7.297-18.262-11.276c-3.651-2.328-6.234-3.388-9.203-6.167
				c-2.292-2.144-7.741,3.59-12.138,7.547c12.275,13.92,30.223,22.73,50.169,22.73C108.749,280.394,123.976,274.285,135.692,264.204
				z"/>
		</g>
	</g>
	<g>
		<rect x="25" y="288.197" style="fill-rule:evenodd;clip-rule:evenodd;fill:#E20613;" width="450" height="27.292"/>
		<polygon style="fill:#FFFFFF;" points="364.001,291.75 360.671,311.937 354.312,311.937 356.781,296.97 348.178,311.937 
			341.483,311.937 337.818,296.803 335.312,311.937 328.954,311.937 332.283,291.75 342.27,291.75 345.71,306.548 354.014,291.75 		
			"/>
		<path style="fill:#FFFFFF;" d="M391.303,299.691l-0.711,4.304c-0.5,3.018-1.584,5.138-3.254,6.358
			c-1.671,1.223-4.389,1.834-8.154,1.834h-3.591c-3.216,0-5.504-0.44-6.863-1.32c-1.358-0.878-2.037-2.365-2.037-4.456
			c0-0.722,0.073-1.527,0.224-2.416l0.711-4.304c0.498-3.016,1.582-5.136,3.254-6.358c1.67-1.222,4.376-1.833,8.116-1.833h3.591
			c3.191,0,5.48,0.439,6.863,1.319c1.383,0.88,2.075,2.356,2.075,4.428C391.527,297.988,391.453,298.803,391.303,299.691
			L391.303,299.691z M384.533,300.135c0.075-0.593,0.131-1.013,0.168-1.264c0.038-0.249,0.056-0.496,0.056-0.734
			c0-0.908-0.281-1.523-0.84-1.848c-0.562-0.323-1.615-0.485-3.161-0.485h-1.346c-1.921,0-3.186,0.273-3.798,0.819
			c-0.61,0.547-1.065,1.716-1.365,3.512l-0.561,3.443c-0.149,0.815-0.223,1.491-0.223,2.027c0,0.871,0.281,1.468,0.84,1.792
			c0.561,0.324,1.602,0.485,3.124,0.485h1.346c1.944,0,3.222-0.273,3.833-0.819c0.611-0.545,1.066-1.707,1.365-3.485
			L384.533,300.135z"/>
		<polygon style="fill:#FFFFFF;" points="416.399,291.75 415.725,295.804 408.769,295.804 406.113,311.937 399.493,311.937 
			402.15,295.804 395.155,295.804 395.829,291.75 		"/>
		<path style="fill:#FFFFFF;" d="M442.058,299.691l-0.711,4.304c-0.5,3.018-1.585,5.138-3.255,6.358
			c-1.67,1.223-4.388,1.834-8.153,1.834h-3.591c-3.216,0-5.505-0.44-6.863-1.32c-1.359-0.878-2.038-2.365-2.038-4.456
			c0-0.722,0.075-1.527,0.224-2.416l0.711-4.304c0.498-3.016,1.582-5.136,3.254-6.358c1.671-1.222,4.377-1.833,8.116-1.833h3.591
			c3.191,0,5.48,0.439,6.863,1.319s2.075,2.356,2.075,4.428C442.281,297.988,442.206,298.803,442.058,299.691L442.058,299.691z
			 M435.286,300.135c0.075-0.593,0.132-1.013,0.169-1.264c0.038-0.249,0.056-0.496,0.056-0.734c0-0.908-0.281-1.523-0.842-1.848
			c-0.561-0.323-1.615-0.485-3.161-0.485h-1.346c-1.921,0-3.186,0.273-3.797,0.819c-0.61,0.547-1.066,1.716-1.365,3.512
			l-0.561,3.443c-0.151,0.815-0.224,1.491-0.224,2.027c0,0.871,0.281,1.468,0.842,1.792c0.56,0.324,1.602,0.485,3.123,0.485h1.346
			c1.944,0,3.222-0.273,3.833-0.819c0.611-0.545,1.066-1.707,1.365-3.485L435.286,300.135z"/>
		<path style="fill:#FFFFFF;" d="M467.602,296.082l-0.186,1.165h-6.247c0.025-0.11,0.038-0.277,0.038-0.499
			c0-0.519-0.212-0.878-0.636-1.083c-0.43-0.203-1.141-0.305-2.145-0.305h-1.689c-1.253,0-2.151,0.117-2.687,0.347
			c-0.541,0.231-0.873,0.671-0.996,1.319l-0.151,0.86c0,0.075,0,0.186,0,0.334c0,0.481,0.219,0.805,0.654,0.972
			c0.437,0.166,1.241,0.296,2.413,0.388l5.311,0.446c3.915,0.37,5.872,1.712,5.872,4.025c0,0.131,0,0.27,0,0.417
			c0,0.149,0,0.259,0,0.333l-0.336,2.001c-0.274,1.628-1.165,2.934-2.669,3.915c-1.496,0.98-3.372,1.472-5.629,1.472h-5.965
			c-2.749,0-4.769-0.316-6.059-0.945c-1.29-0.629-1.931-1.646-1.931-3.054c0-0.147,0-0.295,0-0.443c0-0.15,0.024-0.325,0.073-0.528
			l0.187-1.139h6.247c-0.025,0.094-0.038,0.191-0.038,0.294c0,0.1,0,0.171,0,0.207c0,0.629,0.267,1.074,0.81,1.332
			c0.536,0.26,1.466,0.391,2.792,0.391h1.846c1.247,0,2.145-0.135,2.681-0.404c0.541-0.268,0.872-0.745,0.996-1.43l0.149-0.887
			c0-0.093,0-0.212,0-0.362c0-0.5-0.224-0.847-0.673-1.041c-0.45-0.194-1.223-0.338-2.319-0.43l-5.835-0.501
			c-1.821-0.147-3.154-0.545-4.001-1.193c-0.848-0.648-1.272-1.602-1.272-2.86c0-0.351,0.037-0.721,0.111-1.11l0.224-1.278
			c0.3-1.869,1.273-3.275,2.918-4.219c0.747-0.446,1.632-0.737,2.655-0.876c1.023-0.139,2.307-0.208,3.853-0.208h4.376
			c2.392,0,4.215,0.334,5.46,0.999c1.247,0.667,1.871,1.63,1.871,2.888c0,0.111,0,0.223,0,0.334
			C467.628,295.888,467.602,296.008,467.602,296.082z"/>
		<path style="fill:#1D1D1B;" d="M82.589,338.74l-0.257,1.479c-0.457,2.564-1.641,4.385-3.553,5.46
			c-1.912,1.075-4.823,1.613-8.733,1.613h-6.679l-1.07,5.918h-7.492l3.81-21.513h14.171c3.481,0,6.014,0.405,7.599,1.214
			c1.584,0.809,2.375,2.189,2.375,4.143c0,0.336,0,0.671,0,1.005C82.675,338.374,82.618,338.602,82.589,338.74L82.589,338.74z
			 M75.012,338.77c0-0.317,0-0.544,0-0.682c0-0.729-0.293-1.253-0.878-1.568c-0.584-0.316-1.548-0.473-2.889-0.473h-5.909
			l-1.241,6.923h6.3c1.556,0,2.619-0.187,3.19-0.561c0.578-0.376,0.985-1.155,1.213-2.339L75.012,338.77z"/>
		<path style="fill:#1D1D1B;" d="M105.149,343.977l-0.556,3.254c-0.399,2.289-1.292,3.891-2.675,4.809
			c-1.385,0.918-3.632,1.377-6.743,1.377h-2.954c-2.655,0-4.545-0.33-5.673-0.991c-1.128-0.661-1.691-1.791-1.691-3.389
			c0-0.334,0-0.68,0-1.036c0.086-0.355,0.143-0.611,0.172-0.77l0.556-3.254c0.4-2.289,1.292-3.891,2.676-4.809
			c1.384-0.918,3.632-1.377,6.742-1.377h2.954c2.655,0,4.546,0.33,5.673,0.991c1.127,0.661,1.691,1.791,1.691,3.388
			c0,0.278,0,0.553,0,0.83C105.236,343.434,105.178,343.759,105.149,343.977L105.149,343.977z M98.814,344.331
			c0.057-0.315,0.107-0.6,0.15-0.857c0.043-0.257,0.064-0.543,0.064-0.859c0-0.631-0.185-1.066-0.556-1.302
			c-0.372-0.236-1.07-0.354-2.098-0.354h-0.855c-1.342,0-2.227,0.22-2.655,0.665c-0.428,0.444-0.769,1.346-1.027,2.707l-0.471,2.516
			c-0.058,0.316-0.108,0.602-0.15,0.859c-0.043,0.256-0.064,0.543-0.064,0.857c0,0.632,0.193,1.07,0.578,1.316
			c0.385,0.248,1.091,0.37,2.119,0.37h0.856c1.342,0,2.226-0.22,2.654-0.665c0.429-0.444,0.756-1.357,0.985-2.737L98.814,344.331z"
			/>
		<path style="fill:#1D1D1B;" d="M130.965,331.696l-3.81,21.513h-5.951l0.429-1.923l-0.385,0.029
			c-0.685,0.77-1.562,1.312-2.632,1.628c-1.071,0.316-2.347,0.473-3.833,0.473c-3.967,0-5.951-1.46-5.951-4.38
			c0-0.277,0-0.507,0-0.695c0-0.188,0.058-0.539,0.172-1.05l0.556-3.225c0.37-2.071,1.192-3.605,2.461-4.602
			c1.271-0.996,3.104-1.495,5.502-1.495c1.399,0,2.611,0.148,3.64,0.443c1.027,0.296,1.698,0.75,2.011,1.361l0.214,0.03l1.413-8.108
			H130.965L130.965,331.696z M122.53,344.509c0.029-0.257,0.066-0.498,0.107-0.725c0.043-0.227,0.066-0.468,0.066-0.725
			c0-0.632-0.187-1.086-0.557-1.362c-0.371-0.275-1.042-0.413-2.012-0.413h-0.814c-1.228,0-2.076,0.236-2.547,0.711
			c-0.471,0.472-0.806,1.311-1.006,2.515l-0.427,2.396c-0.086,0.532-0.128,1.007-0.128,1.421c0,0.65,0.186,1.114,0.556,1.39
			c0.371,0.277,1.041,0.414,2.012,0.414h0.813c1.228,0,2.07-0.236,2.526-0.709c0.457-0.473,0.784-1.312,0.984-2.516L122.53,344.509z
			"/>
		<path style="fill:#1D1D1B;" d="M153.868,343.977l-0.385,2.189H140.04l-0.384,2.219c0,0.159,0,0.374,0,0.65
			c0,0.591,0.22,1.007,0.663,1.243c0.442,0.237,1.178,0.355,2.205,0.355h0.899c1.055,0,1.819-0.113,2.29-0.34
			c0.471-0.227,0.849-0.667,1.134-1.318h6.037c-0.543,1.578-1.521,2.712-2.933,3.403c-1.413,0.689-3.432,1.036-6.057,1.036h-2.955
			c-2.654,0-4.545-0.33-5.673-0.991c-1.127-0.661-1.691-1.791-1.691-3.389c0-0.334,0-0.68,0-1.036
			c0.086-0.355,0.144-0.611,0.172-0.77l0.556-3.254c0.4-2.289,1.292-3.891,2.676-4.809c1.384-0.918,3.631-1.377,6.742-1.377h2.954
			c2.655,0,4.545,0.33,5.673,0.991c1.127,0.661,1.691,1.791,1.691,3.388c0,0.278,0,0.553,0,0.83
			C153.954,343.434,153.896,343.759,153.868,343.977L153.868,343.977z M148.003,343.266c0.086-0.454,0.128-0.848,0.128-1.184
			c0-0.652-0.214-1.105-0.642-1.361c-0.429-0.256-1.169-0.384-2.227-0.384h-0.898c-1.257,0-2.141,0.197-2.654,0.591
			c-0.514,0.395-0.87,1.124-1.071,2.189l-0.172,1.007h7.408L148.003,343.266z"/>
		<path style="fill:#1D1D1B;" d="M176.558,343.236l-0.171,1.095h-5.694l0.214-0.709c0-0.355,0-0.602,0-0.741
			c0-0.611-0.179-1.03-0.535-1.257c-0.358-0.227-0.95-0.34-1.778-0.34c-1.084,0-1.833,0.236-2.247,0.711
			c-0.414,0.472-0.749,1.361-1.006,2.661l-1.499,8.553h-6.123l2.698-15.21h5.907l-0.342,1.925l0.3-0.032
			c0.628-0.768,1.413-1.311,2.355-1.626c0.942-0.316,2.084-0.475,3.424-0.475c1.77,0,2.998,0.257,3.683,0.769
			c0.685,0.513,1.027,1.371,1.027,2.575c0,0.375-0.029,0.754-0.085,1.139C176.631,342.661,176.587,342.981,176.558,343.236z"/>
		<path style="fill:#1D1D1B;" d="M211.235,342.674l-1.905,10.535h-6.229l0.385-2.071c-1.026,0.829-1.998,1.416-2.91,1.761
			c-0.913,0.345-1.869,0.518-2.868,0.518h-2.526c-1.541,0-2.726-0.286-3.553-0.859c-0.828-0.572-1.241-1.38-1.241-2.427
			c0-0.118,0-0.256,0-0.414c0-0.157,0-0.286,0-0.384l0.257-1.48c0.235-1.243,0.949-2.208,2.161-2.9
			c1.206-0.69,2.834-1.034,4.881-1.034h1.941c1.042,0,1.927,0.148,2.662,0.443c0.728,0.295,1.441,0.819,2.133,1.569l0.735-3.966
			c0-0.1,0-0.237,0-0.416c0-0.847-0.699-1.272-2.098-1.272h-1.198c-0.914,0-1.571,0.075-1.969,0.223
			c-0.4,0.147-0.686,0.459-0.857,0.931h-6.123c0.343-1.3,1.121-2.234,2.334-2.795c1.214-0.562,2.99-0.844,5.33-0.844h3.34
			c2.625,0,4.503,0.291,5.629,0.873c1.128,0.582,1.691,1.553,1.691,2.916v0.384c0,0.118,0,0.237,0,0.355
			C211.235,342.477,211.235,342.595,211.235,342.674L211.235,342.674z M203.957,348.059c0.029-0.079,0.043-0.197,0.043-0.354
			c0-0.889-0.764-1.332-2.284-1.332h-1.933c-1.699,0-2.662,0.562-2.89,1.686l-0.128,0.829c0,0.08,0,0.198,0,0.355
			c0,0.887,0.77,1.332,2.311,1.332h1.928c1.654,0,2.596-0.562,2.825-1.687L203.957,348.059z"/>
		<path style="fill:#1D1D1B;" d="M245.805,338.088l-0.557,3.048h-9.333l-1.198,6.716c-0.087,0.454-0.13,0.839-0.13,1.155
			c0,0.532,0.165,0.893,0.494,1.079c0.327,0.189,0.963,0.283,1.905,0.283c1.056,0,1.776-0.134,2.161-0.401
			c0.386-0.266,0.65-0.802,0.792-1.613l0.17-1.007h4.967l-0.258,1.481c-0.541,3.057-2.925,4.586-7.149,4.586h-3.725
			c-2.454,0-4.124-0.493-5.009-1.48c-0.229-0.256-0.393-0.523-0.492-0.798c-0.1-0.277-0.15-0.6-0.15-0.977
			c0-0.216,0.021-0.484,0.064-0.798c0.043-0.317,0.078-0.562,0.107-0.741l0.171-0.857l1.156-6.628h-2.547l0.578-3.048h2.526
			l0.513-3.018h6.123l-0.514,3.018H245.805z"/>
		<path style="fill:#1D1D1B;" d="M270.785,337.999l-2.697,15.21h-5.909l0.342-1.953l-0.385,0.03
			c-0.713,0.788-1.598,1.341-2.653,1.657c-1.057,0.316-2.369,0.473-3.939,0.473c-2.14,0-3.639-0.268-4.495-0.8
			c-0.856-0.532-1.283-1.429-1.283-2.691c0-0.534,0.029-0.943,0.085-1.228c0.058-0.286,0.1-0.518,0.128-0.696l1.755-10.001h6.122
			l-1.584,8.848c-0.086,0.532-0.13,0.977-0.13,1.332c0,0.729,0.215,1.198,0.642,1.405c0.427,0.207,1.27,0.311,2.526,0.311
			c1.342,0,2.261-0.241,2.762-0.725c0.5-0.484,0.863-1.346,1.091-2.589l1.498-8.582H270.785z"/>
		<path style="fill:#1D1D1B;" d="M313.596,353.209h-8.006l-0.728-3.877h-10.489l-2.098,3.877h-8.006l12.501-21.513h12.158
			L313.596,353.209L313.596,353.209z M304.305,345.456l-1.542-9.794h-1.24l-5.138,9.794H304.305z"/>
		<polygon style="fill:#1D1D1B;" points="328.194,331.696 324.384,353.209 318.133,353.209 321.944,331.696 		"/>
		<path style="fill:#1D1D1B;" d="M351.098,343.266h-6.251c0.029-0.098,0.043-0.257,0.043-0.475c0-0.572-0.186-1.004-0.557-1.301
			c-0.456-0.355-1.171-0.532-2.14-0.532h-0.943c-1.342,0-2.226,0.22-2.655,0.665c-0.427,0.444-0.769,1.346-1.028,2.707l-0.471,2.516
			c-0.056,0.316-0.106,0.602-0.149,0.859c-0.043,0.256-0.064,0.543-0.064,0.857c0,0.632,0.193,1.07,0.578,1.316
			c0.385,0.248,1.091,0.37,2.119,0.37h0.941c1.171,0,2.012-0.215,2.526-0.65c0.514-0.433,0.856-1.114,1.028-2.041h6.164
			c-0.399,2.288-1.269,3.837-2.611,4.645c-1.341,0.809-3.582,1.214-6.72,1.214h-2.955c-2.653,0-4.545-0.33-5.673-0.991
			c-1.127-0.661-1.691-1.791-1.691-3.389c0-0.334,0-0.68,0-1.036c0.086-0.355,0.144-0.611,0.173-0.77l0.556-3.254
			c0.398-2.289,1.291-3.891,2.676-4.809c1.383-0.918,3.631-1.377,6.742-1.377h2.954c2.512,0,4.425,0.493,5.737,1.479
			c1.113,0.85,1.67,1.935,1.67,3.257C351.098,342.704,351.098,342.951,351.098,343.266z"/>
		<path style="fill:#1D1D1B;" d="M374.985,342.674l-1.905,10.535h-6.228l0.384-2.071c-1.026,0.829-1.998,1.416-2.91,1.761
			c-0.912,0.345-1.869,0.518-2.867,0.518h-2.528c-1.54,0-2.726-0.286-3.553-0.859c-0.827-0.572-1.242-1.38-1.242-2.427
			c0-0.118,0-0.256,0-0.414c0-0.157,0-0.286,0-0.384l0.257-1.48c0.235-1.243,0.949-2.208,2.162-2.9
			c1.206-0.69,2.833-1.034,4.881-1.034h1.94c1.042,0,1.927,0.148,2.663,0.443c0.728,0.295,1.439,0.819,2.133,1.569l0.734-3.966
			c0-0.1,0-0.237,0-0.416c0-0.847-0.699-1.272-2.098-1.272h-1.198c-0.914,0-1.571,0.075-1.969,0.223
			c-0.4,0.147-0.686,0.459-0.856,0.931h-6.124c0.343-1.3,1.121-2.234,2.334-2.795c1.214-0.562,2.99-0.844,5.33-0.844h3.34
			c2.625,0,4.502,0.291,5.628,0.873c1.128,0.582,1.691,1.553,1.691,2.916v0.384c0,0.118,0,0.237,0,0.355
			C374.985,342.477,374.985,342.595,374.985,342.674L374.985,342.674z M367.708,348.059c0.028-0.079,0.042-0.197,0.042-0.354
			c0-0.889-0.763-1.332-2.282-1.332h-1.934c-1.699,0-2.661,0.562-2.891,1.686l-0.127,0.829c0,0.08,0,0.198,0,0.355
			c0,0.887,0.77,1.332,2.311,1.332h1.927c1.654,0,2.597-0.562,2.825-1.687L367.708,348.059z"/>
		<path style="fill:#1D1D1B;" d="M400.115,343.236l-1.755,9.973h-6.121l1.584-8.878c0.085-0.532,0.128-0.975,0.128-1.331
			c0-0.711-0.221-1.173-0.663-1.391c-0.442-0.218-1.278-0.325-2.505-0.325c-1.369,0-2.297,0.241-2.783,0.724
			c-0.485,0.485-0.842,1.366-1.07,2.648l-1.499,8.553h-6.122l2.698-15.21h5.907l-0.342,1.983h0.385
			c0.713-0.83,1.591-1.401,2.632-1.716c1.042-0.316,2.362-0.475,3.96-0.475c2.141,0,3.639,0.266,4.495,0.8
			c0.856,0.532,1.284,1.44,1.284,2.722c0,0.532-0.029,0.941-0.085,1.228C400.188,342.828,400.144,343.059,400.115,343.236z"/>
		<path style="fill:#1D1D1B;" d="M424.904,343.266h-6.251c0.029-0.098,0.043-0.257,0.043-0.475c0-0.572-0.187-1.004-0.557-1.301
			c-0.457-0.355-1.171-0.532-2.141-0.532h-0.941c-1.342,0-2.227,0.22-2.655,0.665c-0.429,0.444-0.771,1.346-1.028,2.707l-0.47,2.516
			c-0.058,0.316-0.108,0.602-0.151,0.859c-0.042,0.256-0.063,0.543-0.063,0.857c0,0.632,0.193,1.07,0.578,1.316
			c0.384,0.248,1.091,0.37,2.119,0.37h0.941c1.171,0,2.012-0.215,2.526-0.65c0.514-0.433,0.856-1.114,1.026-2.041h6.166
			c-0.4,2.288-1.27,3.837-2.611,4.645c-1.341,0.809-3.582,1.214-6.72,1.214h-2.955c-2.655,0-4.545-0.33-5.673-0.991
			c-1.128-0.661-1.691-1.791-1.691-3.389c0-0.334,0-0.68,0-1.036c0.087-0.355,0.143-0.611,0.172-0.77l0.556-3.254
			c0.4-2.289,1.293-3.891,2.677-4.809c1.383-0.918,3.631-1.377,6.741-1.377h2.955c2.512,0,4.423,0.493,5.737,1.479
			c1.113,0.85,1.67,1.935,1.67,3.257C424.904,342.704,424.904,342.951,424.904,343.266z"/>
		<path style="fill:#1D1D1B;" d="M448.534,343.977l-0.385,2.189h-13.443l-0.384,2.219c0,0.159,0,0.374,0,0.65
			c0,0.591,0.22,1.007,0.663,1.243c0.442,0.237,1.177,0.355,2.205,0.355h0.899c1.055,0,1.818-0.113,2.29-0.34
			c0.471-0.227,0.849-0.667,1.134-1.318h6.037c-0.544,1.578-1.521,2.712-2.933,3.403c-1.413,0.689-3.432,1.036-6.058,1.036h-2.955
			c-2.653,0-4.545-0.33-5.672-0.991c-1.128-0.661-1.691-1.791-1.691-3.389c0-0.334,0-0.68,0-1.036
			c0.086-0.355,0.144-0.611,0.172-0.77l0.557-3.254c0.398-2.289,1.291-3.891,2.676-4.809c1.384-0.918,3.631-1.377,6.742-1.377h2.954
			c2.655,0,4.545,0.33,5.673,0.991c1.127,0.661,1.691,1.791,1.691,3.388c0,0.278,0,0.553,0,0.83
			C448.621,343.434,448.563,343.759,448.534,343.977L448.534,343.977z M442.67,343.266c0.085-0.454,0.127-0.848,0.127-1.184
			c0-0.652-0.214-1.105-0.642-1.361c-0.427-0.256-1.169-0.384-2.226-0.384h-0.898c-1.256,0-2.141,0.197-2.653,0.591
			c-0.515,0.395-0.872,1.124-1.071,2.189l-0.172,1.007h7.407L442.67,343.266z"/>
	</g>
</g>
</svg>
