<?xml version="1.0" encoding="UTF-8" standalone="no"?>
<!-- Created with Inkscape (http://www.inkscape.org/) -->

<svg
   width="194.40602mm"
   height="37.207474mm"
   viewBox="0 0 194.40602 37.207474"
   version="1.1"
   id="svg5"
   xml:space="preserve"
   xmlns="http://www.w3.org/2000/svg"
   xmlns:svg="http://www.w3.org/2000/svg"><defs
     id="defs2"><clipPath
       clipPathUnits="userSpaceOnUse"
       id="clipPath198"><path
         d="M 0,285 H 595.28 V 0 H 0 Z"
         id="path196" /></clipPath></defs><g
     id="layer1"
     transform="translate(-7.8796186,-26.072113)"><g
       id="g205"
       transform="translate(-15.235952,-119.15247)"
       style="fill:#494948;fill-opacity:1"><g
         id="layer1-4"
         style="fill:#494948;fill-opacity:1" /><g
         id="g192"
         transform="matrix(0.35277776,0,0,-0.35277778,14.312178,214.82524)"
         style="fill:#494948;fill-opacity:1"><g
           id="g194"
           clip-path="url(#clipPath198)"
           style="fill:#494948;fill-opacity:1"><g
             id="g200"
             transform="translate(321.2387,176.4519)"
             style="fill:#494948;fill-opacity:1"><path
               d="M 0,0 H 40.247 C 50.971,0 59.742,-7.436 59.742,-16.538 V -56.726 H 44.521 v 35.507 c 0,5.489 -4.789,9.961 -10.62,9.961 l -6.162,0.004 V -56.726 H 12.508 v 45.472 H 6.343 c -5.838,0 -10.617,-4.476 -10.617,-9.965 v -35.507 h -15.224 v 40.188 c 0,9.102 8.78,16.534 19.498,16.534 z m -119.707,0 h 36.795 v -11.254 h -30.445 c -5.845,0 -10.627,-4.476 -10.627,-9.965 v -14.249 c 0,-5.483 4.779,-9.972 10.627,-9.972 h 30.445 v -11.254 h -36.795 c -10.724,0 -19.495,7.443 -19.495,16.537 v 23.619 c 0,9.102 8.771,16.534 19.495,16.534 z m 59.801,0 h 36.904 v -11.254 h -30.561 c -5.838,0 -10.623,-4.476 -10.623,-9.965 v -5.573 h 41.184 v -11.251 h -41.184 v -18.683 h -15.225 v 40.188 c 0,9.102 8.781,16.534 19.505,16.534 z m 267.324,0 h 27.875 c 10.711,0 19.495,-7.436 19.495,-16.538 v -23.619 c 0,-9.091 -8.784,-16.537 -19.495,-16.537 h -27.875 c -10.711,0 -19.491,7.443 -19.491,16.537 v 23.619 c 0,9.102 8.78,16.534 19.491,16.534 z m 6.35,-11.254 c -5.841,0 -10.627,-4.476 -10.627,-9.965 v -14.249 c 0,-5.483 4.786,-9.972 10.627,-9.972 h 15.172 c 5.834,0 10.62,4.489 10.62,9.972 v 14.249 c 0,5.489 -4.786,9.961 -10.62,9.961 z M 82.748,0 h 27.864 c 10.721,0 19.502,-7.436 19.502,-16.538 l 0.007,-23.619 c 0,-9.091 -8.788,-16.537 -19.509,-16.537 H 82.748 c -10.721,0 -19.495,7.443 -19.495,16.537 v 23.619 c 0,9.102 8.774,16.534 19.495,16.534 z m 6.339,-11.254 c -5.831,0 -10.61,-4.476 -10.61,-9.965 v -14.249 c 0,-5.483 4.772,-9.972 10.61,-9.972 h 15.183 c 5.83,0 10.616,4.489 10.616,9.972 v 14.249 c 0,5.489 -4.789,9.961 -10.616,9.961 z m 62.302,-45.482 v 45.405 H 133.604 V 0 h 50.819 v -11.331 h -17.416 v -45.405 z"
               style="fill:#494948;fill-opacity:1;fill-rule:evenodd;stroke:none"
               id="path202" /></g><g
             id="g204"
             transform="translate(86.4755,197.2932)"
             style="fill:#494948;fill-opacity:1"><path
               d="m 0,0 c -33.978,0 -61.521,-23.608 -61.521,-52.735 0,-29.124 27.543,-52.735 61.521,-52.735 33.98,0 61.526,23.611 61.526,52.735 C 61.526,-23.608 33.98,0 0,0 m 0,-95.502 c 28.582,0 51.758,19.155 51.758,42.767 0,2.821 -0.332,5.571 -0.963,8.236 -6.292,-1.212 -18.223,-3.298 -24.712,-3.143 -0.993,-0.026 -1.989,-0.041 -2.976,-0.041 -5.015,0 -9.817,0.374 -14.662,1.145 l -0.754,0.117 c -4.533,0.73 -9.22,1.471 -13.916,1.471 -3.29,0 -6.29,-0.363 -9.16,-1.102 l -1.326,-0.341 -4.119,-11.556 2.121,0.175 c 0.049,0 4.976,0.402 10.86,0.4 5.438,0 9.892,-0.32 13.242,-0.979 4.979,-0.968 10.031,-1.438 15.444,-1.438 6.082,0 12.594,0.581 20.914,1.877 -0.833,-3.936 -2.563,-7.307 -5.078,-9.826 -3.583,-3.59 -8.821,-5.335 -16.026,-5.335 -4.685,0 -9.467,0.741 -13.355,1.348 l -1.566,0.24 c -0.855,0.136 -1.719,0.267 -2.581,0.397 -5.7,0.819 -10.044,1.19 -14.094,1.188 -5.855,0 -11.139,-0.775 -16.61,-2.428 l -0.429,-0.127 -14.61,-4.571 C -33.254,-88.19 -17.668,-95.502 0,-95.502 m 0,85.536 c 18.794,0 35.252,-8.283 44.317,-20.662 -3.479,-0.596 -6.564,-1.011 -9.229,-1.3 -5.776,-0.553 -11.469,-0.754 -15.787,-0.512 -4.538,0.253 -8.726,0.758 -12.774,1.246 -5.242,0.633 -10.195,1.229 -15.396,1.229 -1.486,0 -2.907,-0.052 -4.337,-0.149 -3.179,-0.22 -6.188,-0.851 -9.249,-1.529 -3.957,-0.877 -6.326,-1.929 -9.069,-5.549 -1.074,-1.406 -1.843,-2.793 -2.441,-4.346 l -0.555,-1.447 c -0.441,-1.108 -0.884,-2.233 -1.264,-3.292 -0.43,-1.196 -0.853,-2.358 -1.272,-3.516 l -0.009,0.028 -4.449,-12.214 c -1.292,-3.525 -2.601,-7.085 -3.981,-10.882 0.005,-0.011 0.009,-0.015 0.013,-0.022 l -0.065,-0.181 c -3.963,6.043 -6.209,12.97 -6.209,20.329 0,23.623 23.171,42.769 51.756,42.769"
               style="fill:#494948;fill-opacity:1;fill-rule:evenodd;stroke:none"
               id="path206" /></g></g></g></g></g></svg>
