<?xml version="1.0" encoding="iso-8859-1"?>
<!-- Generator: Adobe Illustrator 27.0.0, SVG Export Plug-In . SVG Version: 6.00 Build 0)  -->
<svg version="1.1" id="Layer_1" xmlns="http://www.w3.org/2000/svg" xmlns:xlink="http://www.w3.org/1999/xlink" x="0px" y="0px"
	 viewBox="0 0 500 500" style="enable-background:new 0 0 500 500;" xml:space="preserve">
<g id="watermark_1_">
	<g>
		<g id="watermark" style="opacity:0.61;">
			<g>
				<g>
					<g>
						<g>
							<polygon style="fill:#FFFFFF;" points="213.765,461.172 208.204,474.017 205.268,474.017 199.726,461.172 202.938,461.172 
								206.846,470.347 210.81,461.172 							"/>
						</g>
						<g>
							<path style="fill:#FFFFFF;" d="M223.507,469.741h-7.469c0.275,1.23,1.321,1.982,2.826,1.982c1.046,0,1.798-0.312,2.477-0.954
								l1.523,1.651c-0.917,1.046-2.294,1.597-4.074,1.597c-3.413,0-5.634-2.147-5.634-5.083c0-2.954,2.257-5.083,5.267-5.083
								c2.899,0,5.138,1.945,5.138,5.12C223.562,469.191,223.526,469.503,223.507,469.741 M216.002,468.071h4.863
								c-0.202-1.248-1.138-2.055-2.422-2.055C217.139,466.016,216.204,466.805,216.002,468.071"/>
						</g>
						<g>
							<path style="fill:#FFFFFF;" d="M224.735,468.934c0-2.973,2.294-5.083,5.505-5.083c2.074,0,3.707,0.899,4.423,2.514
								l-2.22,1.193c-0.532-0.936-1.321-1.358-2.221-1.358c-1.45,0-2.587,1.009-2.587,2.734c0,1.725,1.138,2.734,2.587,2.734
								c0.899,0,1.688-0.404,2.221-1.358l2.22,1.211c-0.716,1.578-2.349,2.495-4.423,2.495
								C227.029,474.017,224.735,471.907,224.735,468.934"/>
						</g>
						<g>
							<path style="fill:#FFFFFF;" d="M242.828,473.393c-0.587,0.422-1.45,0.624-2.331,0.624c-2.33,0-3.688-1.193-3.688-3.542
								v-4.055h-1.523v-2.202h1.523v-2.404h2.863v2.404h2.459v2.202h-2.459v4.019c0,0.844,0.458,1.303,1.229,1.303
								c0.422,0,0.844-0.128,1.156-0.367L242.828,473.393z"/>
						</g>
					</g>
					<g>
						<path style="fill:#FFFFFF;" d="M262.474,463.997v2.643c-0.238-0.018-0.422-0.037-0.642-0.037
							c-1.578,0-2.624,0.862-2.624,2.753v4.661h-2.863v-9.873h2.734v1.303C259.776,464.493,260.951,463.997,262.474,463.997"/>
					</g>
					<g>
						<path style="fill:#FFFFFF;" d="M263.299,472.53l1.009-2.239c1.083,0.789,2.697,1.339,4.239,1.339
							c1.762,0,2.477-0.587,2.477-1.376c0-2.404-7.469-0.752-7.469-5.524c0-2.184,1.762-4,5.413-4c1.615,0,3.267,0.385,4.459,1.138
							l-0.918,2.257c-1.193-0.679-2.422-1.009-3.56-1.009c-1.761,0-2.44,0.66-2.44,1.468c0,2.367,7.468,0.734,7.468,5.45
							c0,2.147-1.78,3.982-5.45,3.982C266.492,474.017,264.437,473.411,263.299,472.53"/>
					</g>
					<g>
						<path style="fill:#FFFFFF;" d="M285.428,469.741h-7.469c0.275,1.23,1.321,1.982,2.826,1.982c1.046,0,1.798-0.312,2.477-0.954
							l1.523,1.651c-0.918,1.046-2.294,1.597-4.074,1.597c-3.413,0-5.634-2.147-5.634-5.083c0-2.954,2.257-5.083,5.267-5.083
							c2.9,0,5.138,1.945,5.138,5.12C285.484,469.191,285.447,469.503,285.428,469.741 M277.923,468.071h4.863
							c-0.202-1.248-1.138-2.055-2.422-2.055C279.061,466.016,278.125,466.805,277.923,468.071"/>
					</g>
					<g>
						<path style="fill:#FFFFFF;" d="M297.007,469.741h-7.469c0.275,1.23,1.321,1.982,2.826,1.982c1.046,0,1.798-0.312,2.477-0.954
							l1.523,1.651c-0.918,1.046-2.294,1.597-4.074,1.597c-3.413,0-5.634-2.147-5.634-5.083c0-2.954,2.257-5.083,5.267-5.083
							c2.899,0,5.138,1.945,5.138,5.12C297.062,469.191,297.025,469.503,297.007,469.741 M289.501,468.071h4.863
							c-0.202-1.248-1.138-2.055-2.422-2.055C290.639,466.016,289.703,466.805,289.501,468.071"/>
					</g>
					<g>
						<polygon style="fill:#FFFFFF;" points="303.208,470.145 301.831,471.503 301.831,474.017 298.969,474.017 298.969,460.401 
							301.831,460.401 301.831,468.108 306.016,464.144 309.429,464.144 305.318,468.328 309.796,474.017 306.327,474.017 						"/>
					</g>
					<g>
						<path style="fill:#FFFFFF;" d="M256.601,475.359L256.601,475.359l-2.86-2.86c-0.435,0.508-0.953,0.943-1.534,1.284
							c-0.092,0.069-0.186,0.136-0.283,0.199l3.027,3.027c0.456,0.456,1.195,0.456,1.65,0
							C257.057,476.554,257.057,475.815,256.601,475.359"/>
					</g>
					<g>
						<path style="fill:#FFFFFF;" d="M249.984,463.244c0.221-0.173,0.495-0.281,0.797-0.281c0.042,0,0.083,0.002,0.124,0.006
							c-0.214-0.156-0.478-0.249-0.764-0.249c-0.395,0-0.744,0.18-0.981,0.458c-0.051,0-0.1,0.006-0.151,0.008
							c0.039-0.077,0.064-0.162,0.064-0.255c0-0.234-0.143-0.434-0.346-0.519c0.087,0.126,0.138,0.279,0.138,0.445
							c0,0.122-0.031,0.237-0.081,0.341c-2.811,0.201-5.03,2.539-5.03,5.4c0,2.993,2.426,5.42,5.42,5.42
							c2.993,0,5.42-2.426,5.42-5.42C254.595,465.879,252.593,463.635,249.984,463.244 M247.983,464.656
							c0.435,0,0.844,0.112,1.199,0.309c0.374-0.245,0.82-0.387,1.299-0.387c0.711,0,1.348,0.312,1.784,0.806
							c-0.435-0.379-1.004-0.61-1.627-0.61c-0.449,0-0.87,0.12-1.234,0.329c-0.079,0.046-0.156,0.096-0.229,0.15
							c-0.065-0.048-0.133-0.093-0.204-0.134c-0.369-0.219-0.8-0.344-1.26-0.344c-0.3,0-0.588,0.054-0.854,0.152
							C247.196,464.754,247.578,464.656,247.983,464.656 M251.772,469.098c0.115,0.305,0.181,0.634,0.181,0.979
							c0,1.534-1.244,2.777-2.778,2.777c-1.534,0-2.777-1.243-2.777-2.777c0-0.345,0.066-0.674,0.181-0.979
							c-0.62-0.382-1.035-1.064-1.035-1.846c0-1.197,0.971-2.168,2.168-2.168c0.565,0,1.078,0.218,1.463,0.572
							c0.386-0.354,0.899-0.572,1.464-0.572c1.197,0,2.168,0.971,2.168,2.168C252.807,468.034,252.392,468.716,251.772,469.098"/>
					</g>
					<g>
						<path style="fill:#FFFFFF;" d="M251.666,467.061c0,0.497-0.404,0.901-0.901,0.901c-0.497,0-0.901-0.404-0.901-0.901
							s0.404-0.901,0.901-0.901c0.101,0,0.197,0.017,0.287,0.047c-0.03,0.062-0.045,0.132-0.045,0.204
							c0,0.273,0.221,0.494,0.494,0.494c0.05,0,0.099-0.008,0.146-0.022C251.66,466.941,251.666,467,251.666,467.061"/>
					</g>
					<g>
						<path style="fill:#FFFFFF;" d="M248.255,467.061c0,0.376-0.305,0.681-0.681,0.681c-0.376,0-0.681-0.305-0.681-0.681
							s0.305-0.681,0.681-0.681c0.076,0,0.149,0.013,0.217,0.035c-0.023,0.047-0.034,0.1-0.034,0.155
							c0,0.206,0.167,0.374,0.374,0.374c0.038,0,0.075-0.006,0.11-0.017C248.25,466.97,248.255,467.015,248.255,467.061"/>
					</g>
					<g>
						<g>
							<g>
								<rect x="242.908" y="467.83" style="fill:#FFFFFF;" width="0.616" height="0.616"/>
							</g>
							<g>
								<rect x="254.827" y="467.83" style="fill:#FFFFFF;" width="0.616" height="0.616"/>
							</g>
							<g>
								<path style="fill:#FFFFFF;" d="M255.205,468.082h-0.14c0-3.248-2.642-5.89-5.89-5.89c-3.248,0-5.89,2.642-5.89,5.89h-0.14
									c0-1.611,0.627-3.125,1.766-4.264c1.139-1.139,2.653-1.766,4.264-1.766c1.611,0,3.125,0.627,4.264,1.766
									C254.578,464.957,255.205,466.471,255.205,468.082"/>
							</g>
						</g>
						<g>
							<rect x="248.868" y="461.814" style="fill:#FFFFFF;" width="0.616" height="0.616"/>
						</g>
						<g>
							<rect x="244.95" y="462.052" style="fill:#FFFFFF;" width="8.45" height="0.14"/>
						</g>
						<g>
							<path style="fill:#FFFFFF;" d="M245.174,462.15c0,0.108-0.088,0.196-0.196,0.196c-0.108,0-0.196-0.088-0.196-0.196
								c0-0.108,0.088-0.196,0.196-0.196C245.086,461.954,245.174,462.042,245.174,462.15"/>
						</g>
						<g>
							<path style="fill:#FFFFFF;" d="M253.596,462.15c0,0.108-0.088,0.196-0.196,0.196c-0.108,0-0.196-0.088-0.196-0.196
								c0-0.108,0.088-0.196,0.196-0.196C253.509,461.954,253.596,462.042,253.596,462.15"/>
						</g>
					</g>
				</g>
				<g>
					<path style="fill:#FFFFFF;" d="M314.356,473.409c0,1.559-2.364,1.559-2.364,0C311.993,471.851,314.356,471.851,314.356,473.409
						z"/>
				</g>
				<g>
					<g>
						<g>
							<path style="fill:#FFFFFF;" d="M161.739,466.549l1.772,6.088l1.855-6.088h2.215l-2.823,8.14h-2.33l-0.837-2.396l-0.722-2.708
								l-0.722,2.708l-0.837,2.396h-2.33l-2.839-8.14h2.231l1.855,6.088l1.756-6.088H161.739z"/>
						</g>
						<g>
							<path style="fill:#FFFFFF;" d="M176.713,466.549l1.772,6.088l1.855-6.088h2.215l-2.823,8.14h-2.33l-0.837-2.396l-0.722-2.708
								l-0.722,2.708l-0.837,2.396h-2.33l-2.839-8.14h2.231l1.855,6.088l1.756-6.088H176.713z"/>
						</g>
						<g>
							<path style="fill:#FFFFFF;" d="M191.687,466.549l1.772,6.088l1.855-6.088h2.215l-2.823,8.14h-2.33l-0.837-2.396l-0.722-2.708
								l-0.722,2.708l-0.837,2.396h-2.33l-2.839-8.14h2.231l1.855,6.088l1.756-6.088H191.687z"/>
						</g>
					</g>
					<g>
						<path style="fill:#FFFFFF;" d="M200.908,473.52c0,1.559-2.364,1.559-2.364,0C198.545,471.962,200.908,471.962,200.908,473.52z
							"/>
					</g>
					<g>
						<path style="fill:#FFFFFF;" d="M322.71,473.409c-0.935,0.919-1.919,1.28-3.117,1.28c-2.346,0-4.3-1.411-4.3-4.282
							s1.953-4.284,4.3-4.284c1.149,0,2.035,0.329,2.921,1.199l-1.264,1.329c-0.476-0.428-1.066-0.64-1.623-0.64
							c-1.346,0-2.33,0.985-2.33,2.396c0,1.542,1.05,2.362,2.297,2.362c0.64,0,1.28-0.18,1.772-0.672L322.71,473.409z"/>
					</g>
					<g>
						<path style="fill:#FFFFFF;" d="M331.805,470.472c0,2.33-1.591,4.217-4.217,4.217c-2.626,0-4.201-1.887-4.201-4.217
							c0-2.314,1.609-4.217,4.185-4.217C330.149,466.255,331.805,468.158,331.805,470.472z M325.389,470.472
							c0,1.231,0.739,2.38,2.199,2.38c1.46,0,2.199-1.149,2.199-2.38c0-1.215-0.854-2.396-2.199-2.396
							C326.144,468.077,325.389,469.258,325.389,470.472z"/>
					</g>
					<g>
						<path style="fill:#FFFFFF;" d="M338.572,474.689v-4.332c0-1.068-0.559-2.035-1.658-2.035c-1.082,0-1.722,0.967-1.722,2.035
							v4.332h-2.003v-8.107h1.855l0.148,0.985c0.426-0.82,1.362-1.116,2.133-1.116c0.969,0,1.937,0.394,2.396,1.51
							c0.723-1.149,1.658-1.478,2.708-1.478c2.297,0,3.43,1.412,3.43,3.84v4.365h-2.003v-4.365c0-1.066-0.442-1.97-1.526-1.97
							c-1.082,0-1.756,0.935-1.756,2.003v4.332H338.572z"/>
					</g>
				</g>
			</g>
		</g>
		<g style="opacity:0.61;">
			<g>
				<g>
					<path style="fill:#FFFFFF;" d="M345.988,431.299c-0.006-1.224-0.959-2.121-2.189-2.14c-0.924-0.014-0.832,0.12-0.834-0.867
						c-0.003-1.097-0.007-2.194,0.003-3.292c0.003-0.379-0.112-0.691-0.362-0.976c-2.342-2.668-4.678-5.342-7.019-8.011
						c-0.12-0.137-0.275-0.244-0.414-0.366c-6.214,0-12.427,0-18.641,0c-0.794,0.293-1.14,0.868-1.138,1.709
						c0.01,3.748,0.004,7.496,0.004,11.243c0,0.556-0.003,0.589-0.55,0.551c-1.497-0.102-2.516,0.986-2.497,2.492
						c0.044,3.476,0.013,6.953,0.014,10.429c0.001,1.58,0.867,2.443,2.45,2.449c0.582,0.002,0.582,0.002,0.582,0.6
						c0,2.219-0.001,4.438,0.001,6.657c0.001,1.192,0.58,1.771,1.768,1.771c8.013,0.001,16.027,0.001,24.04,0
						c1.168,0,1.755-0.583,1.757-1.745c0.002-2.256,0-4.512,0.001-6.768c0-0.512,0.002-0.511,0.52-0.515
						c0.271-0.002,0.541,0.008,0.809-0.058c0.996-0.246,1.69-1.044,1.694-2.069C346.003,438.696,346.005,434.997,345.988,431.299z
						 M317.537,417.162c5.337,0,10.674,0,16.01,0c0.548,0,0.554,0.007,0.554,0.561c0.001,2.243-0.001,4.486,0.001,6.73
						c0.001,0.811,0.249,1.059,1.06,1.059c1.91,0.001,3.821,0,5.731,0.001c0.458,0,0.479,0.021,0.481,0.483
						c0.003,0.887,0.002,1.775,0,2.662c-0.001,0.477-0.024,0.498-0.504,0.499c-3.895,0.001-7.79,0-11.684,0
						c-3.882,0-7.765,0-11.647,0c-0.55,0-0.552-0.001-0.552-0.561c-0.001-3.624-0.001-7.247,0-10.871
						C316.987,417.166,316.991,417.162,317.537,417.162z M340.822,451.579c-3.883,0.001-7.766,0-11.65,0c-3.871,0-7.742,0-11.613,0
						c-0.572,0-0.574-0.002-0.574-0.579c-0.001-1.997-0.001-3.994,0.001-5.991c0-0.464,0.023-0.486,0.478-0.487
						c7.803-0.001,15.607-0.001,23.41,0c0.478,0,0.499,0.02,0.499,0.503c0.002,1.997,0.001,3.994,0,5.991
						C341.375,451.574,341.37,451.579,340.822,451.579z"/>
				</g>
				<g>
					<g>
						<rect x="327.418" y="417.053" style="fill:#FFFFFF;" width="1.757" height="1.054"/>
					</g>
					<g>
						<rect x="325.662" y="418.107" style="fill:#FFFFFF;" width="1.757" height="1.054"/>
					</g>
					<g>
						<rect x="327.418" y="419.161" style="fill:#FFFFFF;" width="1.757" height="1.054"/>
					</g>
					<g>
						<rect x="325.662" y="420.215" style="fill:#FFFFFF;" width="1.757" height="1.054"/>
					</g>
					<g>
						<rect x="327.418" y="421.269" style="fill:#FFFFFF;" width="1.757" height="1.054"/>
					</g>
					<g>
						<rect x="325.662" y="422.323" style="fill:#FFFFFF;" width="1.757" height="1.054"/>
					</g>
					<g>
						<rect x="327.418" y="423.378" style="fill:#FFFFFF;" width="1.757" height="1.054"/>
					</g>
					<g>
						<rect x="325.662" y="424.432" style="fill:#FFFFFF;" width="1.757" height="1.054"/>
					</g>
					<g>
						<rect x="327.418" y="425.486" style="fill:#FFFFFF;" width="1.757" height="1.054"/>
					</g>
					<g>
						<rect x="325.662" y="426.54" style="fill:#FFFFFF;" width="1.757" height="1.054"/>
					</g>
					<g>
						<rect x="327.418" y="427.594" style="fill:#FFFFFF;" width="1.757" height="1.054"/>
					</g>
					<g>
						<rect x="325.662" y="428.648" style="fill:#FFFFFF;" width="1.757" height="1.054"/>
					</g>
				</g>
			</g>
			<g>
				<path style="fill:#FFFFFF;" d="M187.637,431.299c-0.006-1.224-0.959-2.121-2.189-2.14c-0.924-0.014-0.832,0.12-0.834-0.867
					c-0.003-1.097-0.007-2.194,0.003-3.292c0.003-0.379-0.112-0.691-0.362-0.976c-2.342-2.668-4.678-5.342-7.019-8.011
					c-0.12-0.137-0.275-0.244-0.414-0.366c-6.214,0-12.427,0-18.641,0c-0.794,0.293-1.14,0.868-1.138,1.709
					c0.01,3.748,0.004,7.496,0.004,11.243c0,0.556-0.003,0.589-0.55,0.551c-1.497-0.102-2.516,0.986-2.497,2.492
					c0.044,3.476,0.013,6.953,0.014,10.429c0.001,1.58,0.867,2.443,2.45,2.449c0.582,0.002,0.582,0.002,0.582,0.6
					c0,2.219-0.001,4.438,0.001,6.657c0.001,1.192,0.58,1.771,1.768,1.771c8.013,0.001,16.027,0.001,24.04,0
					c1.168,0,1.755-0.583,1.757-1.745c0.002-2.256,0-4.512,0.001-6.768c0-0.512,0.002-0.511,0.52-0.515
					c0.271-0.002,0.541,0.008,0.809-0.058c0.996-0.246,1.69-1.044,1.694-2.069C187.652,438.696,187.655,434.997,187.637,431.299z
					 M159.187,417.162c5.337,0,10.674,0,16.01,0c0.548,0,0.554,0.007,0.554,0.561c0.001,2.243-0.001,4.486,0.001,6.73
					c0.001,0.811,0.249,1.059,1.06,1.059c1.91,0.001,3.821,0,5.731,0.001c0.458,0,0.479,0.021,0.481,0.483
					c0.003,0.887,0.002,1.775,0,2.662c-0.001,0.477-0.024,0.498-0.504,0.499c-3.895,0.001-7.79,0-11.684,0
					c-3.882,0-7.765,0-11.647,0c-0.55,0-0.552-0.001-0.552-0.561c-0.001-3.624-0.001-7.247,0-10.871
					C158.636,417.166,158.64,417.162,159.187,417.162z M182.472,451.579c-3.883,0.001-7.766,0-11.65,0c-3.871,0-7.742,0-11.613,0
					c-0.572,0-0.574-0.002-0.574-0.579c-0.001-1.997-0.001-3.994,0.001-5.991c0-0.464,0.023-0.486,0.478-0.487
					c7.803-0.001,15.607-0.001,23.41,0c0.478,0,0.499,0.02,0.499,0.503c0.002,1.997,0.001,3.994,0,5.991
					C183.024,451.574,183.019,451.579,182.472,451.579z"/>
			</g>
			<g>
				<path style="fill:#FFFFFF;" d="M159.779,440.669v-7.897h2.779c0.375,0,0.726,0.061,1.053,0.182
					c0.327,0.121,0.612,0.292,0.855,0.513c0.242,0.221,0.434,0.483,0.573,0.789c0.14,0.305,0.21,0.642,0.21,1.009
					c0,0.375-0.07,0.715-0.21,1.02c-0.14,0.305-0.331,0.568-0.573,0.789c-0.243,0.221-0.528,0.392-0.855,0.513
					c-0.327,0.121-0.678,0.182-1.053,0.182h-1.29v2.901H159.779z M162.58,436.356c0.39,0,0.684-0.111,0.882-0.331
					c0.199-0.22,0.298-0.474,0.298-0.761c0-0.14-0.024-0.276-0.072-0.408c-0.048-0.132-0.121-0.248-0.221-0.347
					c-0.099-0.099-0.223-0.178-0.37-0.237c-0.147-0.059-0.32-0.089-0.518-0.089h-1.312v2.173H162.58z"/>
				<path style="fill:#FFFFFF;" d="M166.308,432.771h1.731l3.177,5.294h0.088l-0.088-1.522v-3.772h1.478v7.897h-1.566l-3.353-5.592
					h-0.088l0.088,1.522v4.07h-1.467V432.771z"/>
				<path style="fill:#FFFFFF;" d="M177.922,436.334h3.872c0.022,0.089,0.04,0.195,0.055,0.32c0.014,0.125,0.022,0.25,0.022,0.375
					c0,0.507-0.077,0.985-0.231,1.434c-0.154,0.449-0.397,0.849-0.728,1.202c-0.353,0.375-0.776,0.666-1.268,0.871
					c-0.493,0.206-1.055,0.309-1.688,0.309c-0.574,0-1.114-0.103-1.622-0.309c-0.507-0.206-0.948-0.492-1.323-0.86
					c-0.375-0.367-0.673-0.803-0.894-1.307c-0.221-0.504-0.331-1.053-0.331-1.649c0-0.595,0.11-1.145,0.331-1.649
					c0.221-0.504,0.518-0.939,0.894-1.307c0.375-0.367,0.816-0.654,1.323-0.86c0.507-0.206,1.048-0.309,1.622-0.309
					c0.64,0,1.211,0.11,1.715,0.331c0.504,0.221,0.935,0.526,1.296,0.915l-1.025,1.004c-0.258-0.272-0.544-0.48-0.861-0.623
					c-0.316-0.143-0.695-0.215-1.136-0.215c-0.361,0-0.703,0.065-1.026,0.193c-0.324,0.129-0.607,0.311-0.85,0.546
					c-0.242,0.235-0.436,0.52-0.579,0.855c-0.143,0.335-0.215,0.708-0.215,1.119c0,0.412,0.072,0.785,0.215,1.12
					c0.143,0.335,0.338,0.62,0.584,0.855c0.246,0.235,0.531,0.418,0.855,0.546c0.323,0.129,0.669,0.193,1.037,0.193
					c0.419,0,0.773-0.061,1.064-0.182c0.29-0.121,0.538-0.278,0.744-0.469c0.148-0.132,0.275-0.3,0.381-0.502
					c0.106-0.202,0.189-0.428,0.248-0.678h-2.482V436.334z"/>
			</g>
			<g>
				<path style="fill:#FFFFFF;" d="M224.019,431.299c-0.006-1.224-0.959-2.121-2.189-2.14c-0.924-0.014-0.832,0.12-0.834-0.867
					c-0.003-1.097-0.007-2.194,0.003-3.292c0.003-0.379-0.112-0.691-0.362-0.976c-2.342-2.668-4.678-5.342-7.019-8.011
					c-0.12-0.137-0.275-0.244-0.414-0.366c-6.214,0-12.427,0-18.641,0c-0.794,0.293-1.14,0.868-1.138,1.709
					c0.01,3.748,0.004,7.496,0.004,11.243c0,0.556-0.003,0.589-0.55,0.551c-1.497-0.102-2.516,0.986-2.497,2.492
					c0.044,3.476,0.013,6.953,0.014,10.429c0.001,1.58,0.867,2.443,2.45,2.449c0.582,0.002,0.582,0.002,0.582,0.6
					c0,2.219-0.001,4.438,0.001,6.657c0.001,1.192,0.58,1.771,1.768,1.771c8.013,0.001,16.027,0.001,24.04,0
					c1.168,0,1.755-0.583,1.757-1.745c0.002-2.256,0-4.512,0.001-6.768c0-0.512,0.002-0.511,0.52-0.515
					c0.271-0.002,0.541,0.008,0.809-0.058c0.997-0.246,1.69-1.044,1.694-2.069C224.034,438.696,224.036,434.997,224.019,431.299z
					 M195.568,417.162c5.337,0,10.674,0,16.01,0c0.548,0,0.554,0.007,0.554,0.561c0.001,2.243-0.001,4.486,0.001,6.73
					c0.001,0.811,0.249,1.059,1.06,1.059c1.91,0.001,3.821,0,5.731,0.001c0.458,0,0.479,0.021,0.481,0.483
					c0.003,0.887,0.002,1.775,0,2.662c-0.001,0.477-0.024,0.498-0.504,0.499c-3.895,0.001-7.79,0-11.684,0
					c-3.882,0-7.765,0-11.647,0c-0.55,0-0.552-0.001-0.552-0.561c-0.001-3.624-0.001-7.247,0-10.871
					C195.018,417.166,195.022,417.162,195.568,417.162z M218.854,451.579c-3.883,0.001-7.766,0-11.65,0c-3.871,0-7.742,0-11.613,0
					c-0.572,0-0.574-0.002-0.574-0.579c-0.001-1.997-0.001-3.994,0.001-5.991c0-0.464,0.023-0.486,0.478-0.487
					c7.803-0.001,15.607-0.001,23.41,0c0.478,0,0.499,0.02,0.499,0.503c0.002,1.997,0.001,3.994,0,5.991
					C219.406,451.574,219.401,451.579,218.854,451.579z"/>
			</g>
			<g>
				<path style="fill:#FFFFFF;" d="M205.111,432.771h1.699l2.967,7.897h-1.644l-0.651-1.886h-3.044l-0.651,1.886h-1.643
					L205.111,432.771z M206.997,437.415l-0.706-1.974l-0.287-0.96h-0.088l-0.287,0.96l-0.706,1.974H206.997z"/>
				<path style="fill:#FFFFFF;" d="M211.331,434.536c-0.125,0-0.245-0.024-0.359-0.072c-0.114-0.048-0.213-0.114-0.298-0.199
					c-0.084-0.084-0.151-0.182-0.198-0.292c-0.048-0.11-0.072-0.232-0.072-0.364s0.024-0.254,0.072-0.364
					c0.048-0.11,0.114-0.208,0.198-0.292c0.084-0.084,0.184-0.151,0.298-0.198c0.114-0.048,0.233-0.072,0.359-0.072
					c0.257,0,0.478,0.09,0.662,0.27c0.184,0.181,0.276,0.399,0.276,0.656s-0.092,0.476-0.276,0.656
					C211.809,434.446,211.589,434.536,211.331,434.536z M210.615,440.669v-5.404h1.445v5.404H210.615z"/>
			</g>
			<g>
				<path style="fill:#FFFFFF;" d="M261.044,431.299c-0.006-1.224-0.959-2.121-2.189-2.14c-0.924-0.014-0.832,0.12-0.834-0.867
					c-0.003-1.097-0.007-2.194,0.003-3.292c0.003-0.379-0.112-0.691-0.362-0.976c-2.342-2.668-4.678-5.342-7.019-8.011
					c-0.12-0.137-0.275-0.244-0.414-0.366c-6.214,0-12.427,0-18.641,0c-0.794,0.293-1.14,0.868-1.138,1.709
					c0.01,3.748,0.004,7.496,0.004,11.243c0,0.556-0.003,0.589-0.55,0.551c-1.497-0.102-2.516,0.986-2.497,2.492
					c0.044,3.476,0.013,6.953,0.014,10.429c0.001,1.58,0.867,2.443,2.45,2.449c0.582,0.002,0.582,0.002,0.582,0.6
					c0,2.219-0.001,4.438,0.001,6.657c0.001,1.192,0.58,1.771,1.768,1.771c8.013,0.001,16.027,0.001,24.04,0
					c1.168,0,1.755-0.583,1.757-1.745c0.002-2.256,0-4.512,0.001-6.768c0-0.512,0.002-0.511,0.52-0.515
					c0.271-0.002,0.541,0.008,0.809-0.058c0.996-0.246,1.69-1.044,1.694-2.069C261.059,438.696,261.061,434.997,261.044,431.299z
					 M232.593,417.162c5.337,0,10.674,0,16.01,0c0.548,0,0.554,0.007,0.554,0.561c0.001,2.243-0.001,4.486,0.001,6.73
					c0.001,0.811,0.249,1.059,1.06,1.059c1.91,0.001,3.821,0,5.731,0.001c0.458,0,0.479,0.021,0.481,0.483
					c0.003,0.887,0.002,1.775,0,2.662c-0.001,0.477-0.024,0.498-0.504,0.499c-3.895,0.001-7.79,0-11.684,0
					c-3.882,0-7.765,0-11.647,0c-0.55,0-0.552-0.001-0.552-0.561c-0.001-3.624-0.001-7.247,0-10.871
					C232.042,417.166,232.047,417.162,232.593,417.162z M255.878,451.579c-3.883,0.001-7.766,0-11.65,0c-3.871,0-7.742,0-11.613,0
					c-0.572,0-0.574-0.002-0.574-0.579c-0.001-1.997-0.001-3.994,0.001-5.991c0-0.464,0.023-0.486,0.478-0.487
					c7.803-0.001,15.607-0.001,23.41,0c0.478,0,0.499,0.02,0.499,0.503c0.002,1.997,0.001,3.994,0,5.991
					C256.431,451.574,256.426,451.579,255.878,451.579z"/>
			</g>
			<g>
				<path style="fill:#FFFFFF;" d="M236.361,440.845c-0.338,0-0.662-0.048-0.971-0.143c-0.309-0.095-0.592-0.239-0.849-0.43
					c-0.257-0.191-0.481-0.425-0.673-0.7c-0.191-0.276-0.342-0.597-0.452-0.965l1.401-0.551c0.103,0.397,0.283,0.726,0.54,0.987
					c0.257,0.261,0.596,0.392,1.015,0.392c0.154,0,0.303-0.02,0.447-0.061c0.143-0.04,0.272-0.099,0.386-0.176
					s0.204-0.175,0.27-0.292c0.066-0.118,0.099-0.254,0.099-0.408c0-0.147-0.026-0.279-0.077-0.397
					c-0.051-0.117-0.138-0.227-0.259-0.331c-0.121-0.103-0.28-0.202-0.475-0.298c-0.195-0.095-0.435-0.195-0.722-0.298l-0.485-0.176
					c-0.213-0.073-0.429-0.173-0.645-0.298c-0.217-0.125-0.413-0.276-0.59-0.452c-0.177-0.176-0.322-0.384-0.436-0.623
					c-0.114-0.239-0.171-0.509-0.171-0.81c0-0.309,0.06-0.597,0.182-0.866c0.121-0.268,0.294-0.503,0.518-0.706
					c0.224-0.202,0.492-0.36,0.805-0.474s0.66-0.171,1.042-0.171c0.397,0,0.74,0.053,1.031,0.16
					c0.291,0.107,0.537,0.243,0.739,0.408c0.202,0.165,0.366,0.348,0.491,0.546c0.125,0.199,0.217,0.386,0.276,0.563l-1.312,0.551
					c-0.074-0.221-0.208-0.419-0.402-0.596c-0.195-0.176-0.462-0.265-0.8-0.265c-0.324,0-0.592,0.075-0.805,0.226
					c-0.213,0.151-0.32,0.348-0.32,0.59c0,0.235,0.103,0.436,0.309,0.601c0.206,0.165,0.533,0.325,0.982,0.48l0.497,0.165
					c0.316,0.111,0.605,0.237,0.866,0.381c0.261,0.143,0.485,0.314,0.673,0.513c0.187,0.199,0.331,0.425,0.43,0.678
					c0.1,0.254,0.149,0.546,0.149,0.877c0,0.412-0.083,0.767-0.248,1.064c-0.165,0.298-0.377,0.542-0.634,0.734
					c-0.258,0.191-0.548,0.335-0.872,0.43C236.986,440.797,236.67,440.845,236.361,440.845z"/>
				<path style="fill:#FFFFFF;" d="M239.516,432.771h1.61l1.633,4.754l0.287,1.015h0.088l0.309-1.015l1.699-4.754h1.61l-2.879,7.897
					h-1.566L239.516,432.771z"/>
				<path style="fill:#FFFFFF;" d="M251.097,436.334h3.871c0.022,0.089,0.04,0.195,0.055,0.32c0.015,0.125,0.023,0.25,0.023,0.375
					c0,0.507-0.078,0.985-0.232,1.434c-0.154,0.449-0.397,0.849-0.728,1.202c-0.353,0.375-0.775,0.666-1.268,0.871
					c-0.493,0.206-1.055,0.309-1.688,0.309c-0.574,0-1.114-0.103-1.621-0.309c-0.507-0.206-0.949-0.492-1.324-0.86
					c-0.375-0.367-0.673-0.803-0.894-1.307c-0.22-0.504-0.331-1.053-0.331-1.649c0-0.595,0.11-1.145,0.331-1.649
					c0.221-0.504,0.518-0.939,0.894-1.307c0.375-0.367,0.816-0.654,1.324-0.86c0.507-0.206,1.047-0.309,1.621-0.309
					c0.64,0,1.211,0.11,1.715,0.331c0.504,0.221,0.936,0.526,1.296,0.915l-1.026,1.004c-0.257-0.272-0.544-0.48-0.861-0.623
					c-0.316-0.143-0.694-0.215-1.136-0.215c-0.36,0-0.702,0.065-1.026,0.193c-0.323,0.129-0.607,0.311-0.849,0.546
					c-0.243,0.235-0.436,0.52-0.579,0.855c-0.143,0.335-0.215,0.708-0.215,1.119c0,0.412,0.072,0.785,0.215,1.12
					c0.143,0.335,0.338,0.62,0.585,0.855c0.246,0.235,0.531,0.418,0.854,0.546c0.324,0.129,0.669,0.193,1.037,0.193
					c0.419,0,0.774-0.061,1.064-0.182c0.29-0.121,0.539-0.278,0.745-0.469c0.147-0.132,0.274-0.3,0.38-0.502
					c0.107-0.202,0.189-0.428,0.248-0.678h-2.482V436.334z"/>
			</g>
			<g>
				<path style="fill:#FFFFFF;" d="M297.3,431.299c-0.006-1.224-0.959-2.121-2.189-2.14c-0.924-0.014-0.832,0.12-0.834-0.867
					c-0.003-1.097-0.007-2.194,0.003-3.292c0.003-0.379-0.112-0.691-0.362-0.976c-2.342-2.668-4.678-5.342-7.019-8.011
					c-0.12-0.137-0.275-0.244-0.414-0.366c-6.214,0-12.427,0-18.641,0c-0.794,0.293-1.14,0.868-1.138,1.709
					c0.01,3.748,0.004,7.496,0.004,11.243c0,0.556-0.003,0.589-0.55,0.551c-1.497-0.102-2.516,0.986-2.497,2.492
					c0.044,3.476,0.013,6.953,0.014,10.429c0.001,1.58,0.867,2.443,2.45,2.449c0.582,0.002,0.582,0.002,0.582,0.6
					c0,2.219-0.001,4.438,0.001,6.657c0.001,1.192,0.58,1.771,1.768,1.771c8.013,0.001,16.027,0.001,24.04,0
					c1.168,0,1.755-0.583,1.757-1.745c0.002-2.256,0-4.512,0.001-6.768c0-0.512,0.002-0.511,0.52-0.515
					c0.271-0.002,0.541,0.008,0.809-0.058c0.996-0.246,1.69-1.044,1.694-2.069C297.315,438.696,297.318,434.997,297.3,431.299z
					 M268.85,417.162c5.337,0,10.674,0,16.01,0c0.548,0,0.554,0.007,0.554,0.561c0.001,2.243-0.001,4.486,0.001,6.73
					c0.001,0.811,0.249,1.059,1.06,1.059c1.91,0.001,3.821,0,5.731,0.001c0.458,0,0.479,0.021,0.481,0.483
					c0.003,0.887,0.002,1.775,0,2.662c-0.001,0.477-0.024,0.498-0.504,0.499c-3.895,0.001-7.79,0-11.684,0
					c-3.882,0-7.765,0-11.647,0c-0.55,0-0.552-0.001-0.552-0.561c-0.001-3.624-0.001-7.247,0-10.871
					C268.299,417.166,268.303,417.162,268.85,417.162z M292.135,451.579c-3.883,0.001-7.766,0-11.65,0c-3.871,0-7.742,0-11.613,0
					c-0.572,0-0.574-0.002-0.574-0.579c-0.001-1.997-0.001-3.994,0.001-5.991c0-0.464,0.023-0.486,0.478-0.487
					c7.803-0.001,15.607-0.001,23.41,0c0.478,0,0.499,0.02,0.499,0.503c0.001,1.997,0.001,3.994,0,5.991
					C292.687,451.574,292.682,451.579,292.135,451.579z"/>
			</g>
			<g>
				<path style="fill:#FFFFFF;" d="M272.966,434.183v1.831h3.165v1.412h-3.165v1.831h3.518v1.412h-5.007v-7.897h5.007v1.412H272.966
					z"/>
				<path style="fill:#FFFFFF;" d="M277.852,440.669v-7.897h2.779c0.375,0,0.726,0.061,1.053,0.182
					c0.327,0.121,0.612,0.292,0.855,0.513c0.243,0.221,0.434,0.483,0.574,0.789c0.14,0.305,0.209,0.642,0.209,1.009
					c0,0.375-0.07,0.715-0.209,1.02c-0.14,0.305-0.331,0.568-0.574,0.789c-0.243,0.221-0.528,0.392-0.855,0.513
					c-0.327,0.121-0.678,0.182-1.053,0.182h-1.29v2.901H277.852z M280.653,436.356c0.389,0,0.684-0.111,0.882-0.331
					c0.199-0.22,0.298-0.474,0.298-0.761c0-0.14-0.024-0.276-0.072-0.408c-0.048-0.132-0.121-0.248-0.221-0.347
					c-0.099-0.099-0.222-0.178-0.37-0.237c-0.147-0.059-0.32-0.089-0.518-0.089h-1.312v2.173H280.653z"/>
				<path style="fill:#FFFFFF;" d="M286.797,440.845c-0.338,0-0.662-0.048-0.971-0.143c-0.309-0.095-0.592-0.239-0.849-0.43
					c-0.257-0.191-0.482-0.425-0.673-0.7c-0.191-0.276-0.342-0.597-0.452-0.965l1.401-0.551c0.103,0.397,0.283,0.726,0.541,0.987
					c0.257,0.261,0.595,0.392,1.015,0.392c0.154,0,0.303-0.02,0.447-0.061c0.143-0.04,0.272-0.099,0.386-0.176
					c0.114-0.077,0.204-0.175,0.27-0.292c0.066-0.118,0.1-0.254,0.1-0.408c0-0.147-0.026-0.279-0.077-0.397
					c-0.051-0.117-0.138-0.227-0.259-0.331c-0.121-0.103-0.279-0.202-0.474-0.298c-0.195-0.095-0.436-0.195-0.723-0.298
					l-0.485-0.176c-0.213-0.073-0.428-0.173-0.645-0.298c-0.217-0.125-0.414-0.276-0.59-0.452c-0.176-0.176-0.322-0.384-0.436-0.623
					c-0.114-0.239-0.171-0.509-0.171-0.81c0-0.309,0.061-0.597,0.182-0.866c0.121-0.268,0.294-0.503,0.518-0.706
					c0.224-0.202,0.493-0.36,0.805-0.474c0.312-0.114,0.66-0.171,1.042-0.171c0.397,0,0.741,0.053,1.031,0.16
					c0.29,0.107,0.537,0.243,0.739,0.408c0.202,0.165,0.365,0.348,0.491,0.546c0.125,0.199,0.217,0.386,0.276,0.563l-1.312,0.551
					c-0.074-0.221-0.208-0.419-0.403-0.596c-0.195-0.176-0.462-0.265-0.799-0.265c-0.324,0-0.592,0.075-0.805,0.226
					c-0.213,0.151-0.32,0.348-0.32,0.59c0,0.235,0.103,0.436,0.309,0.601c0.206,0.165,0.533,0.325,0.982,0.48l0.496,0.165
					c0.316,0.111,0.605,0.237,0.866,0.381c0.261,0.143,0.485,0.314,0.673,0.513c0.187,0.199,0.331,0.425,0.43,0.678
					c0.099,0.254,0.149,0.546,0.149,0.877c0,0.412-0.083,0.767-0.248,1.064c-0.165,0.298-0.377,0.542-0.634,0.734
					c-0.258,0.191-0.548,0.335-0.872,0.43C287.422,440.797,287.105,440.845,286.797,440.845z"/>
			</g>
			<g>
				<path style="fill:#FFFFFF;" d="M321.394,439.168l4.004-4.985h-3.827v-1.412h5.559v1.5l-3.96,4.985h4.004v1.412h-5.779V439.168z"
					/>
				<path style="fill:#FFFFFF;" d="M328.409,432.771h1.489v7.897h-1.489V432.771z"/>
				<path style="fill:#FFFFFF;" d="M331.486,440.669v-7.897h2.779c0.375,0,0.726,0.061,1.053,0.182
					c0.327,0.121,0.612,0.292,0.855,0.513s0.434,0.483,0.574,0.789c0.14,0.305,0.209,0.642,0.209,1.009
					c0,0.375-0.07,0.715-0.209,1.02c-0.14,0.305-0.331,0.568-0.574,0.789c-0.243,0.221-0.528,0.392-0.855,0.513
					c-0.327,0.121-0.678,0.182-1.053,0.182h-1.29v2.901H331.486z M334.288,436.356c0.389,0,0.684-0.111,0.882-0.331
					c0.199-0.22,0.298-0.474,0.298-0.761c0-0.14-0.024-0.276-0.072-0.408c-0.048-0.132-0.121-0.248-0.221-0.347
					c-0.099-0.099-0.222-0.178-0.37-0.237c-0.147-0.059-0.32-0.089-0.518-0.089h-1.312v2.173H334.288z"/>
			</g>
		</g>
		<g style="opacity:0.61;">
			<path style="fill:#FFFFFF;" d="M300.133,433.27h9.067v2.242h-9.067V433.27z M300.133,437.136h9.067v2.243h-9.067V437.136z"/>
		</g>
	</g>
	<g style="opacity:0.61;">
		<path style="fill:#FFFFFF;" d="M156.756,478.878h1.607c1.263,0,2.114,0.812,2.114,1.974c0,1.161-0.851,1.973-2.114,1.973h-1.607
			V478.878z M158.34,482.464c1.049,0,1.725-0.665,1.725-1.612c0-0.947-0.677-1.613-1.725-1.613h-1.167v3.225H158.34z"/>
		<path style="fill:#FFFFFF;" d="M165.139,480.851c0-1.15,0.879-2.007,2.075-2.007c1.184,0,2.069,0.851,2.069,2.007
			c0,1.156-0.885,2.007-2.069,2.007C166.019,482.858,165.139,482.002,165.139,480.851z M168.866,480.851
			c0-0.942-0.705-1.635-1.652-1.635c-0.953,0-1.663,0.693-1.663,1.635c0,0.941,0.71,1.635,1.663,1.635
			C168.162,482.486,168.866,481.793,168.866,480.851z"/>
		<path style="fill:#FFFFFF;" d="M179.596,478.878l-1.331,3.947h-0.44l-1.156-3.366l-1.161,3.366h-0.434l-1.331-3.947h0.429
			l1.139,3.394l1.178-3.394h0.389l1.161,3.411l1.156-3.411H179.596z"/>
		<path style="fill:#FFFFFF;" d="M187.731,478.878v3.947h-0.344l-2.537-3.202v3.202h-0.417v-3.947h0.344l2.543,3.203v-3.203H187.731
			z"/>
		<path style="fill:#FFFFFF;" d="M193.093,478.878h0.417v3.586h2.21v0.361h-2.627V478.878z"/>
		<path style="fill:#FFFFFF;" d="M200.061,480.851c0-1.15,0.879-2.007,2.075-2.007c1.184,0,2.069,0.851,2.069,2.007
			c0,1.156-0.885,2.007-2.069,2.007C200.941,482.858,200.061,482.002,200.061,480.851z M203.788,480.851
			c0-0.942-0.705-1.635-1.652-1.635c-0.953,0-1.663,0.693-1.663,1.635c0,0.941,0.71,1.635,1.663,1.635
			C203.083,482.486,203.788,481.793,203.788,480.851z"/>
		<path style="fill:#FFFFFF;" d="M211.636,481.77h-2.199l-0.474,1.054h-0.434l1.804-3.947h0.412l1.804,3.947h-0.44L211.636,481.77z
			 M211.484,481.432l-0.947-2.12l-0.947,2.12H211.484z"/>
		<path style="fill:#FFFFFF;" d="M217.28,478.878h1.607c1.263,0,2.114,0.812,2.114,1.974c0,1.161-0.851,1.973-2.114,1.973h-1.607
			V478.878z M218.864,482.464c1.049,0,1.725-0.665,1.725-1.612c0-0.947-0.677-1.613-1.725-1.613h-1.167v3.225H218.864z"/>
		<path style="fill:#FFFFFF;" d="M234.041,481.77h-2.199l-0.474,1.054h-0.434l1.804-3.947h0.412l1.804,3.947h-0.44L234.041,481.77z
			 M233.889,481.432l-0.947-2.12l-0.947,2.12H233.889z"/>
		<path style="fill:#FFFFFF;" d="M239.685,478.878h0.417v3.586h2.21v0.361h-2.627V478.878z"/>
		<path style="fill:#FFFFFF;" d="M247.082,478.878h0.417v3.586h2.21v0.361h-2.627V478.878z"/>
		<path style="fill:#FFFFFF;" d="M260.449,479.239v1.551h2.041v0.361h-2.041v1.675h-0.417v-3.947h2.706v0.361H260.449z"/>
		<path style="fill:#FFFFFF;" d="M267.678,478.878h0.417v3.947h-0.417V478.878z"/>
		<path style="fill:#FFFFFF;" d="M273.456,478.878h0.417v3.586h2.21v0.361h-2.627V478.878z"/>
		<path style="fill:#FFFFFF;" d="M283.644,482.464v0.361h-2.791v-3.947h2.706v0.361h-2.289v1.404h2.041v0.355h-2.041v1.466H283.644z
			"/>
		<path style="fill:#FFFFFF;" d="M294.672,479.239v1.551h2.041v0.361h-2.041v1.675h-0.417v-3.947h2.706v0.361H294.672z"/>
		<path style="fill:#FFFFFF;" d="M301.5,480.851c0-1.15,0.879-2.007,2.075-2.007c1.184,0,2.069,0.851,2.069,2.007
			c0,1.156-0.885,2.007-2.069,2.007C302.379,482.858,301.5,482.002,301.5,480.851z M305.226,480.851
			c0-0.942-0.705-1.635-1.652-1.635c-0.953,0-1.663,0.693-1.663,1.635c0,0.941,0.71,1.635,1.663,1.635
			C304.522,482.486,305.226,481.793,305.226,480.851z"/>
		<path style="fill:#FFFFFF;" d="M313.351,482.825l-0.902-1.269c-0.102,0.011-0.203,0.017-0.316,0.017h-1.06v1.252h-0.417v-3.947
			h1.477c1.004,0,1.613,0.507,1.613,1.353c0,0.62-0.327,1.054-0.902,1.24l0.964,1.353H313.351z M313.328,480.231
			c0-0.632-0.417-0.992-1.207-0.992h-1.048v1.979h1.048C312.911,481.218,313.328,480.851,313.328,480.231z"/>
		<path style="fill:#FFFFFF;" d="M322.907,478.878v3.947h-0.4v-3.158l-1.551,2.656h-0.197l-1.551-2.639v3.14h-0.4v-3.947h0.344
			l1.714,2.926l1.697-2.926H322.907z"/>
		<path style="fill:#FFFFFF;" d="M330.744,481.77h-2.199l-0.473,1.054h-0.434l1.804-3.947h0.411l1.804,3.947h-0.44L330.744,481.77z
			 M330.592,481.432l-0.947-2.12l-0.947,2.12H330.592z"/>
		<path style="fill:#FFFFFF;" d="M336.957,479.239h-1.387v-0.361h3.192v0.361h-1.387v3.586h-0.417V479.239z"/>
		<path style="fill:#FFFFFF;" d="M343.063,482.346l0.164-0.321c0.282,0.276,0.784,0.479,1.302,0.479c0.739,0,1.06-0.31,1.06-0.699
			c0-1.083-2.43-0.417-2.43-1.877c0-0.581,0.451-1.083,1.455-1.083c0.446,0,0.908,0.13,1.224,0.35l-0.141,0.333
			c-0.338-0.22-0.733-0.327-1.083-0.327c-0.722,0-1.043,0.321-1.043,0.716c0,1.083,2.43,0.429,2.43,1.866
			c0,0.581-0.462,1.077-1.472,1.077C343.937,482.858,343.356,482.65,343.063,482.346z"/>
	</g>
</g>
<g>
</g>
<g>
	<path style="fill-rule:evenodd;clip-rule:evenodd;fill:#D9261C;" d="M35.659,277.583l-0.078-0.331L22,211.966
		c6.949,0,13.92,0,20.891,0l7.418,34.498c0.13,0,0.287,0,0.443,0c1.437-3.867,1.437-3.867,1.697-4.909
		c0.052-0.056,0.104-0.104,0.182-0.16c0-0.078,0-0.13,0-0.182c0.052-0.365,0.104-0.703,0.186-1.042
		c0.052-0.082,0.104-0.13,0.156-0.186c0-0.052,0-0.104,0-0.156c0.287-1.697,0.573-3.394,0.886-5.066c0-0.052,0-0.104,0-0.156
		c0-0.182,0-0.365,0-0.521c0.052-0.078,0.104-0.13,0.156-0.182c0-0.078,0-0.134,0-0.182c0-2.978,0-5.929,0-8.88
		c0-0.052,0-0.104,0-0.156c-0.052-0.078-0.104-0.13-0.156-0.182c0-0.365,0-0.707,0-1.046c0-0.078,0-0.13,0-0.182
		c-0.078-0.052-0.13-0.104-0.182-0.156c0-0.13,0-0.26,0-0.365c0-0.052,0-0.104,0-0.156c-0.078-0.186-0.13-0.368-0.182-0.525
		l-1.906-10.105c7.023,0,14.05,0,21.073,0l4.18,18.985c0,0.052,0,0.104,0,0.156c0,0.104,0,0.234,0,0.365c0,0.052,0,0.104,0,0.156
		c0.052,0.052,0.104,0.104,0.156,0.182c0,0.16,0,0.342,0,0.525c0,0.052,0,0.104,0,0.182c0,0.104,0,0.208,0,0.339
		c-0.052,0.052-0.104,0.104-0.156,0.182l-9.402,44.734c-0.655,0-1.306,0-1.935,0c-0.048-0.13-0.104-0.234-0.156-0.339
		c0-0.078,0-0.13,0-0.182l-6.632-33.899l-0.703-0.313c-0.811,0.395-1.072,1.831-1.202,2.691c-0.078,0-0.13,0-0.182,0
		c0,0.052,0,0.104,0,0.182c-0.182,0.629-0.365,1.254-0.525,1.906c0,0.056,0,0.104,0,0.182c-0.231,0.629-0.469,1.254-0.677,1.909
		c-0.104,0.13-0.104,0.13,0,0.182c0,0.156,0,0.339,0,0.521c-0.078,0.052-0.13,0.104-0.182,0.182c0,0.052,0,0.104,0,0.156
		c-0.078,0.29-0.13,0.577-0.182,0.89c0,0.052,0,0.104,0,0.156c0,0.104,0,0.234,0,0.365c-0.052,0.052-0.104,0.104-0.156,0.156
		c-0.104,0.13-0.104,0.13,0,0.186c0,0.156,0,0.339,0,0.521c-0.078,0.052-0.13,0.104-0.182,0.182c0,0.052,0,0.104,0,0.156
		c0,0.156,0,0.339,0,0.521c0,0.052,0,0.108,0,0.182c0,0.156,0,0.342,0,0.525c-0.078,0.052-0.13,0.104-0.182,0.182
		c0,0.052,0,0.104,0,0.156c0,0.104,0,0.234,0,0.365c0,0.052,0,0.104,0,0.156c0,0.156,0,0.339,0,0.525
		c-0.052,0.052-0.108,0.104-0.156,0.182c0,0.052,0,0.104,0,0.182c0.048,2.609,0.104,5.222,0.156,7.835c0,0.052,0,0.104,0,0.156
		c0,0.391,0,0.808,0,1.228c0,0.052,0,0.104,0,0.182c0.052,0.052,0.104,0.104,0.182,0.156c0,0.391,0,0.808,0,1.228
		c0.052,0.052,0.104,0.104,0.182,0.182c0.052,0.339,0.104,0.677,0.156,1.042c0,0.052,0,0.104,0,0.16c0,0.104,0,0.234,0,0.365
		c0,0.052,0,0.104,0,0.156c0.052,0.052,0.104,0.104,0.182,0.182c0.104,0.625,0.208,1.254,0.339,1.906c0,0.052,0,0.104,0,0.182
		c0.395,2.01,0.811,4.049,1.228,6.085c0,0.052,0,0.104,0,0.182c-0.078,0-0.13,0-0.182,0
		C49.657,277.695,42.604,277.635,35.659,277.583 M38.347,288.034c-0.052-0.048-0.104-0.104-0.156-0.153c-0.078,0-0.13,0-0.182,0
		l-1.225-5.226c0-0.078,0-0.13,0-0.182c-0.03-0.13-0.056-0.26-0.056-0.391c11.281-0.104,22.566-0.208,33.873-0.287l13.187-61.475
		c0-0.078,0-0.13,0-0.182c0.13-2.27-0.499-2.847-2.482-3.785l0.052-4.206c9.167-0.078,18.334-0.13,27.501-0.182l0.056,4.544
		l-1.779,0.677c-1.228,0.603-1.961,1.775-2.092,3.134l-0.182,0.863L90.42,288.034c-0.078,0-0.13,0-0.182,0
		C72.923,288.034,55.635,288.034,38.347,288.034z"/>
	<path style="fill-rule:evenodd;clip-rule:evenodd;fill:#00458F;" d="M224.613,266.704c-3.097,0-3.744-3.227-3.123-5.397
		c0.231-0.819,1.18-1.418,1.891-1.891c1.042-0.331,2.066-0.737,3.123-0.949c0.376-0.074,0.316-0.171,0.663-0.283
		c1.016-0.331,2.081-0.495,3.123-0.662c1.292-0.205,3.763-1.396,5.065-1.891l0.614-0.287c1.042-0.566,2.084-1.087,3.171-1.608
		c0,0.852,0,1.742-0.331,2.557c-1.686,4.157-4.537,6.32-8.188,8.802c-0.484,0.328-2.594,1.001-3.167,1.277
		C226.593,266.782,225.569,266.704,224.613,266.704 M289.638,268.267c-0.142-0.145-0.235-0.238-0.331-0.331
		c-0.141-0.097-0.234-0.19-0.331-0.287c-1.325-1.798-2.602-3.737-2.84-6.011c-0.093-0.141-0.19-0.234-0.283-0.331
		c-0.663-3.927-0.614-7.95-0.663-11.973c0-0.141,0-0.234,0-0.331c0-0.093,0-0.19,0-0.283c0.093-0.141,0.19-0.238,0.331-0.331
		c0-0.521,0-1.042,0-1.563c0.093-0.141,0.19-0.234,0.331-0.331c0-0.141,0-0.234,0-0.331c0-0.234,0-0.424,0-0.614
		c0-0.141,0-0.238,0-0.331c0.093-0.093,0.19-0.19,0.283-0.283c0.097-0.428,0.19-0.852,0.331-1.28
		c0.097-0.141,0.19-0.234,0.331-0.331c0-0.093,0-0.186,0-0.283c0.38-0.852,0.804-1.705,1.232-2.557c0-0.093,0-0.19,0-0.283
		c0.19-0.238,0.424-0.473,0.663-0.662c0.093-0.093,0.19-0.19,0.283-0.283c0.19-0.141,0.428-0.238,0.663-0.331
		c0.097,0.045,0.19,0.093,0.283,0.141c0.048-0.048,0.097-0.097,0.19-0.141c-0.093-0.141-0.141-0.238-0.19-0.331
		c0.287-0.331,0.618-0.663,0.949-0.949c0.093-0.093,0.19-0.186,0.331-0.283c1.656-0.614,2.602-0.852,4.399-0.945
		c0.097,0,0.19,0,0.331,0c0.808,0.521,1.656,1.042,2.509,1.559c0.097,0.097,0.19,0.19,0.331,0.331
		c0.097,0.097,0.19,0.19,0.331,0.287c0.618,0.707,1.232,1.466,1.894,2.222c0.093,0.097,0.19,0.19,0.283,0.331
		c0.097,0.19,0.19,0.38,0.331,0.618c0,0.093,0,0.186,0,0.331c0.097,0.093,0.19,0.186,0.331,0.283
		c0.097,0.283,0.19,0.614,0.283,0.945c0.097,0.097,0.194,0.19,0.335,0.331c0.424,2.84,1.057,5.657,1.277,8.519
		c0.022,0.301,0.015,0.123,0,0.331c-0.238,3.193-0.194,4.023-0.331,6.912c-0.007,0.171-0.268,0.171-0.331,0.331
		c-0.037,0.086,0.034,0.194,0,0.331c-0.298,1.236-0.663,2.509-0.949,3.785c0,0.097,0,0.19,0,0.283
		c-0.234,0.287-0.424,0.618-0.614,0.949c-0.141,0.093-0.234,0.19-0.331,0.331c0,0.093,0,0.19,0,0.331
		c-0.852,0.945-1.705,1.891-2.509,2.84c-0.141,0.093-0.234,0.186-0.331,0.283c-1.087,0.945-1.087,0.945-2.177,1.277
		c-0.141,0.097-0.235,0.19-0.331,0.331C293.189,270.727,291.771,269.875,289.638,268.267z M439.806,248.388c0-0.759,0-1.515,0-2.226
		c0.097-0.093,0.19-0.19,0.331-0.283c0-0.331,0-0.662,0-0.945c0-0.141,0-0.238,0-0.331c0.097-0.141,0.19-0.238,0.287-0.331
		c1.087-3.126,1.087-3.126,1.608-3.789c0-0.093,0-0.19,0-0.283c0.19-0.238,0.38-0.473,0.614-0.662
		c0.097-0.093,0.19-0.19,0.335-0.283c4.02-3.644,7.098-3.219,11.355,0c0.097,0.093,0.19,0.19,0.287,0.283
		c0.517,0.852,1.038,1.705,1.608,2.557c0,0.093,0,0.186,0,0.283c0.283,1.135,0.614,2.319,0.945,3.502
		c0.097,0.093,0.19,0.19,0.287,0.283c0,0.428,0,0.852,0,1.28c0,0.093,0,0.186,0,0.331c0,0.186,0,0.376,0,0.614
		c-0.097,0-0.19,0-0.287,0c-5.68,0-11.359,0-17.039,0C439.996,248.388,439.903,248.388,439.806,248.388z M327.784,227.564
		c-0.093-0.141-0.19-0.238-0.283-0.331c0-2.412,0-4.827,0-7.243c0.093,0,0.19,0,0.283,0c7.857,0,15.762,0,23.664,0
		c0.093,0,0.19,0,0.331,0c-0.093,2.416-0.19,4.831-0.283,7.291C343.591,227.375,335.689,227.471,327.784,227.564z M129.343,276.452
		c0.093-0.093,0.186-0.186,0.331-0.283l3.123-7.287c0.093,0,0.19,0,0.331,0c0-0.097,0-0.19,0-0.283c0-12.528-0.067-25.034,0-37.58
		c0-0.093,0-0.19,0-0.283c-0.142,0-0.238,0-0.331,0l-3.409-7.384c9.133-0.093,18.271-0.141,27.404-0.186
		c-0.141,0.376-0.238,0.804-0.331,1.228c-0.097,0.097-0.19,0.19-0.283,0.331c-0.901,1.753-1.801,3.551-2.698,5.348
		c-0.048,3.551-0.097,7.146-0.141,10.741c0.093,0,0.19,0,0.283,0c7.243,0,14.482,0,21.769,0c0-3.264,0-6.528,0-9.796l-3.785-7.853
		c9.227,0,18.505,0,27.78,0l-3.644,6.908c0.048,13.347,0.093,26.693,0.19,40.085l3.316,6.625
		c-9.037-0.093-18.557-0.186-27.594-0.283c1.277-2.877,2.572-4.388,3.837-7.347c0-5.14-0.048-10.276-0.101-15.416
		c-7.288,0-14.527,0-21.769,0c-0.093,0-0.19,0-0.283,0c-0.19,0.234-0.19,0.234,0,0.331c0.045,5.159,0.093,10.317,0.141,15.476
		c1.087,2.412,2.177,4.827,3.312,7.239c-9.182,0-18.315,0-27.449,0C129.343,276.641,129.343,276.548,129.343,276.452z
		 M446.435,277.732c-0.141-0.141-0.238-0.238-0.331-0.331c-0.097,0-0.19,0-0.287,0c-4.73-0.473-4.73-0.473-8.516-1.232
		c-0.145-0.141-0.238-0.234-0.331-0.331c-0.145,0-0.238,0-0.331,0c-0.238-0.141-0.428-0.234-0.618-0.331c-0.141,0-0.234,0-0.331,0
		c-2.84-1.087-2.84-1.087-4.731-2.177c-0.097-0.141-0.19-0.234-0.287-0.331c-0.283-0.19-0.283-0.19-0.331,0
		c-0.852-0.521-1.701-1.042-2.508-1.563c-0.142-0.141-0.235-0.234-0.331-0.331c-0.141-0.141-0.234-0.234-0.331-0.331
		c-0.756-0.662-1.466-1.277-2.174-1.891c0-0.097,0-0.19,0-0.283c-2.181-3.219-3.93-6.011-5.065-9.8
		c-0.141-0.141-0.238-0.234-0.331-0.331c0-0.093,0-0.186,0-0.283c-0.238-2.791-0.473-5.393-0.283-8.233
		c0.093-0.097,0.186-0.19,0.283-0.287c0-0.141,0-0.234,0-0.331c0.093-0.756,0.19-1.515,0.331-2.222c0-0.097,0-0.19,0-0.287
		c0.093-0.234,0.19-0.473,0.331-0.662c0.093-0.093,0.19-0.19,0.283-0.283c0-0.141,0-0.238,0-0.331
		c1.894-4.262,1.894-4.262,2.226-4.403c0.093-0.141,0.19-0.234,0.331-0.331c0-0.141,0-0.234,0-0.331
		c3.785-5.11,9.562-8.374,15.759-9.748c0.097,0,0.19,0,0.331,0c0-0.19,0-0.19,1.563-0.662c0.093,0,0.19,0,0.331,0
		c0.283,0,0.614,0,0.945,0c0.093-0.097,0.19-0.19,0.283-0.283c3.692-0.145,7.384-0.238,11.076-0.331c0,0.093,0,0.186,0,0.331
		c0.093,0,0.19,0,0.283,0c0.097,0,0.19,0,0.331,0c0.097,0,0.19,0,0.331,0c0.38,0,0.804,0,1.232,0c0.093,0,0.19,0,0.331,0
		c0.093,0.093,0.19,0.186,0.331,0.283c0.093,0,0.19,0,0.283,0c0.097,0,0.19,0,0.331,0c1.042,0.19,2.084,0.424,3.171,0.662
		c0,0.093,0,0.19,0,0.283c0.097,0,0.19,0,0.283,0c0.19,0,0.428,0,0.662,0c0.097,0.097,0.19,0.19,0.287,0.331
		c2.65,0.614,4.92,2.177,7.287,3.458c0.093,0.093,0.19,0.186,0.283,0.331c0.852,0.614,1.705,1.228,2.557,1.891
		c0.093,0.097,0.19,0.19,0.283,0.331c1.47,1.846,2.747,3.551,3.789,5.68c0,0.097,0,0.19,0,0.283c0.093,0.097,0.186,0.19,0.331,0.331
		c0.186,0.287,0.376,0.618,0.614,0.949c0,0.093,0,0.19,0,0.331c0.283,1.135,0.614,2.27,0.945,3.454c0,0.093,0,0.19,0,0.331
		c0.097,0.093,0.19,0.19,0.331,0.283c0,0.287,0,0.618,0,0.949c-0.19,0.234-0.19,0.234,0,0.331c0.097,1.891,0.19,3.785,0.331,5.68
		c-0.141,0-0.234,0-0.331,0c-12.305,0-24.609,0-36.914,0c0.663,1.701,1.37,2.743,2.509,4.116c0,0.093,0,0.19,0,0.283
		c0.852,0.711,1.705,1.466,2.553,2.226c0.097,0.093,0.19,0.19,0.287,0.331c2.222,1.087,2.222,1.087,4.73,1.891
		c0.097,0.097,0.19,0.19,0.331,0.287c0.711,0.093,1.466,0.19,2.226,0.331c0.093,0,0.19,0,0.283,0
		c0.852,0.093,1.705,0.19,2.557,0.331c0.093,0.093,0.19,0.19,0.283,0.283c0.097,0,0.19,0,0.331,0c0.521,0,1.042,0,1.563,0
		c0.093,0,0.19,0,0.331,0c0-0.283,0-0.283,3.171-0.283c0-0.141,0-0.238,0-0.331c0.093,0,0.19,0,0.283,0
		c0.852-0.141,1.705-0.238,2.557-0.331c0.093-0.097,0.19-0.19,0.283-0.287c3.785-1.135,3.785-1.135,5.065-1.891
		c0.093,0,0.186,0,0.331,0c1.891-1.091,3.785-2.133,5.68-3.171l1.251-0.755l-0.022,0.424c-0.283,3.882-2.933,7.239-5.348,10.127
		c-0.141,0.093-0.234,0.19-0.331,0.283c-0.331,0.097-0.663,0.19-0.945,0.331c-0.097,0.097-0.19,0.19-0.283,0.331
		c-0.145,0.097-0.238,0.19-0.331,0.283c-1.28,0.949-2.557,1.894-3.789,2.844c-0.141,0-0.234,0-0.331,0
		c-1.37,0.517-2.743,1.038-4.068,1.608c-0.949,0.38-1.894,0.804-2.84,1.228c-0.141,0-0.238,0-0.331,0
		c-6.956,1.091-6.956,1.091-11.028,1.28c-0.283-0.19-0.283-0.19-0.331,0C447.049,277.732,446.717,277.732,446.435,277.732z
		 M371.04,277.732c-0.142-0.141-0.235-0.238-0.331-0.331c-0.141,0-0.234,0-0.331,0c-1.184-0.331-2.319-0.663-3.454-0.949
		c-0.141-0.093-0.234-0.186-0.331-0.283c-0.235-0.141-0.424-0.234-0.614-0.331c-0.141-0.141-0.238-0.234-0.331-0.331
		c-0.238-0.234-0.428-0.424-0.614-0.614c-0.145-0.141-0.238-0.238-0.331-0.331c-0.238-0.097-0.428-0.19-0.618-0.283
		c-0.141-0.145-0.234-0.238-0.331-0.331c-0.663-1.28-1.277-2.557-1.894-3.789c0-0.141,0-0.234,0-0.331
		c-0.093-0.093-0.186-0.19-0.283-0.283c0-0.238,0-0.473,0-0.662c0-0.097,0-0.19,0-0.283c-0.093-10.317-0.142-20.638-0.19-30.955
		c-0.707-1.37-1.37-2.743-2.032-4.068c-0.145-0.141-0.238-0.238-0.331-0.331c-0.428-0.949-0.852-1.894-1.232-2.84
		c9.133,0,18.267,0,27.449,0h0.514l-0.845,1.277c-0.756,1.232-1.515,2.509-2.222,3.789c0,0.093,0,0.186,0,0.283
		c-0.097,0.093-0.19,0.19-0.287,0.331c-0.235,0.283-0.473,0.614-0.663,0.945c0,0.097,0,0.19,0,0.331
		c0.141,23.947,0.141,23.947,0.331,24.613c1.894,0.424,1.894,0.424,3.171,0.283c0.097,0,0.19,0,0.283,0c0.19,0,0.428,0,0.663,0
		c0.097,0,0.19,0,0.287,0c0.093-0.097,0.19-0.19,0.331-0.283c0.804-0.428,1.656-0.856,2.509-1.28
		c0.093-0.141,0.19-0.238,0.331-0.331c0.093,0,0.19,0,0.331,0c1.37-1.277,2.557-2.319,3.264-4.068c0-6.342,0-12.64,0-18.933
		l-3.595-6.956c9.134,0,18.267,0,27.449,0h0.543c-1.102,1.891-2.75,4.734-3.856,6.625c0.048,10.98,0.093,21.959,0.141,32.939
		l3.171,6.815h-18.598c-0.145-0.141-0.238-0.234-0.331-0.331c-0.145,0-0.238,0-0.331,0c-0.521-0.234-1.042-0.424-1.563-0.614
		c-0.141,0-0.238,0-0.331,0c-0.093-0.141-0.19-0.234-0.283-0.331c-0.141-0.093-0.238-0.19-0.331-0.283
		c-0.141-0.141-0.238-0.238-0.331-0.331c-0.711-0.569-0.711-0.569-1.232-1.894c-0.141-0.141-0.234-0.238-0.331-0.331
		c0-0.093,0-0.19,0-0.283c0-0.141,0-0.238,0-0.331c0-1.612,0-3.171,0-4.734c-0.331,0.097-0.663,0.19-0.945,0.331
		c-0.145,0.097-0.238,0.19-0.331,0.287c-0.097,0.093-0.19,0.186-0.287,0.331c-0.756,0.707-1.515,1.466-2.222,2.222
		c-0.287-0.19-0.287-0.19-0.331,0c-0.57,0.663-0.57,0.663-3.789,2.84c-0.093,0.097-0.186,0.19-0.283,0.287
		c-0.142,0.093-0.235,0.186-0.331,0.331c-1.466,0.614-2.933,1.228-4.403,1.891c-0.142,0.097-0.235,0.19-0.331,0.331
		c-0.141,0-0.234,0-0.331,0c-0.093,0-0.186,0-0.283,0c-0.142,0.097-0.235,0.19-0.331,0.283c-0.756,0.19-1.515,0.428-2.222,0.662
		c-0.238-0.186-0.238-0.186-0.287,0c-0.235,0-0.473,0-0.663,0c-0.093,0-0.19,0-0.283,0c-0.142,0.097-0.238,0.19-0.331,0.287
		C373.977,277.494,372.506,277.59,371.04,277.732z M291.201,277.732c-0.141-0.141-0.238-0.238-0.331-0.331c-0.097,0-0.19,0-0.287,0
		c-0.331,0-0.663,0-0.945,0c-0.142,0-0.235,0-0.331,0c-2.036-0.331-4.023-0.663-6.011-0.949c-0.093,0-0.19,0-0.283,0
		c-1.184-0.424-2.367-0.849-3.502-1.228c-0.097,0-0.19,0-0.283,0c-0.949-0.569-1.894-1.091-2.84-1.608c-0.142,0-0.238,0-0.331,0
		c-0.141-0.097-0.238-0.19-0.331-0.287c-0.852-0.569-1.705-1.087-2.509-1.608c-0.141-0.097-0.238-0.19-0.331-0.287
		c-0.097-0.234-0.19-0.473-0.283-0.662c-0.145,0-0.238,0-0.331,0c-0.145-0.093-0.238-0.186-0.331-0.283
		c-0.097-0.141-0.194-0.234-0.287-0.331c-0.141-0.141-0.238-0.234-0.331-0.331c-2.509-2.602-3.927-5.252-5.348-8.519
		c0-0.093,0-0.19,0-0.283c-0.235-1.184-0.473-2.367-0.663-3.502c0-0.093,0-0.19,0-0.283c-0.093-0.141-0.19-0.238-0.283-0.331
		c0-0.238,0-0.428,0-0.614c0-0.145,0-0.238,0-0.331c0-2.036,0-4.023,0-6.011c0.093-0.097,0.19-0.19,0.283-0.287
		c0-0.141,0-0.234,0-0.331c0-0.234,0-0.424,0-0.614c0-0.141,0-0.238,0-0.331c0.19-0.945,0.428-1.894,0.663-2.84
		c0-0.141,0-0.238,0-0.331c0.097-0.093,0.19-0.19,0.287-0.283c0.614-1.515,1.228-2.985,1.891-4.451
		c0.097-0.093,0.19-0.19,0.331-0.283c0.097-0.141,0.19-0.238,0.331-0.331c0.38-0.663,0.804-1.277,1.232-1.894
		c0.093-0.141,0.19-0.234,0.331-0.331c0.19-0.234,0.376-0.424,0.614-0.614c0.093-0.141,0.19-0.234,0.331-0.331
		c0.19,0,0.38,0,0.618,0c0-0.234,0-0.424,0-0.614c0.804-0.331,0.804-0.331,1.277-0.945c0.093,0,0.19,0,0.331,0
		c2.177-1.422,2.177-1.422,2.84-1.563c0.093-0.141,0.19-0.238,0.283-0.331c0.093-0.141,0.19-0.238,0.331-0.331
		c0.424-0.093,0.852-0.19,1.277-0.283c0.097-0.141,0.19-0.238,0.287-0.335c2.84-1.135,2.84-1.135,6.625-2.222
		c0.093,0,0.19,0,0.331,0c0.424,0,0.852,0,1.277,0c0.097-0.097,0.19-0.19,0.287-0.283c4.068-0.145,8.184-0.238,12.305-0.331
		c0.093,0.093,0.186,0.186,0.331,0.331c0.093,0,0.186,0,0.331,0c0.283,0,0.614,0,0.945,0c0.093,0,0.19,0,0.283,0
		c0.283,0,0.614,0,0.945,0c0,0.093,0,0.186,0,0.283c0.097,0,0.194,0,0.335,0c2.84,0.473,2.84,0.473,2.84,0.662
		c0.093,0,0.186,0,0.331,0c2.129,0.663,8.944,2.557,9.748,4.734c0.093,0.093,0.19,0.186,0.331,0.283
		c0.19,0.19,0.38,0.424,0.614,0.662c0.097,0,0.19,0,0.331,0c0.19,0.093,1.515,1.373,1.563,1.559c0,0.097,0,0.19,0,0.331
		c0.19,0.19,0.424,0.38,0.663,0.618c0.093,0.093,0.19,0.19,0.283,0.331c1.846,2.981,3.409,5.631,4.12,9.134c0,0.093,0,0.19,0,0.331
		c0.093,0.093,0.19,0.19,0.331,0.283c0,0.287,0,0.618,0,0.949c-0.19,0.234-0.19,0.234,0,0.331c0,0.186,0,0.376,0,0.614
		c0.093,0.093,0.19,0.19,0.283,0.331c0,1.232,0,2.509,0,3.785c-0.093,0.097-0.19,0.19-0.283,0.331c0,0.521,0,1.042,0,1.563
		c-0.19,0.234-0.19,0.234,0,0.331c0,0.093,0,0.19,0,0.283c-0.141,0.097-0.238,0.19-0.331,0.331
		c-0.331,1.563-0.663,3.123-0.949,4.734c-0.141,0.093-0.234,0.19-0.331,0.331c-0.945,1.56-1.891,3.123-2.84,4.731
		c-0.093,0.097-0.19,0.19-0.283,0.287c-0.142,0.093-0.238,0.186-0.331,0.331c-0.141,0.283-0.238,0.614-0.331,0.945
		c-0.093,0.093-0.19,0.19-0.283,0.331c-0.428,0.283-0.852,0.614-1.28,0.945c-0.283-0.19-0.283-0.19-0.331,0
		c-0.093,0.097-0.19,0.19-0.283,0.283c-1.087,0.852-2.129,1.705-3.171,2.557c-0.141,0-0.234,0-0.331,0
		c-0.097,0.097-0.19,0.19-0.283,0.287c-0.145,0.093-0.238,0.186-0.331,0.331c-0.145,0-0.238,0-0.331,0
		c-1.042,0.424-2.084,0.849-3.126,1.277c-0.141-0.141-0.235-0.238-0.331-0.331c0,0.093,0,0.19,0,0.331
		c-1.466,0.521-2.933,1.042-4.399,1.56c-0.142,0-0.238,0-0.331,0c-0.238,0-0.424,0-0.614,0c-0.142,0-0.238,0-0.331,0
		c-0.141,0.097-0.238,0.19-0.335,0.331c-0.424,0-0.849,0-1.228,0c-0.142,0-0.238,0-0.331,0c-0.141,0.097-0.238,0.19-0.331,0.287
		c-0.238,0-0.428,0-0.614,0c-0.145,0-0.238,0-0.331,0C296.643,277.494,293.9,277.59,291.201,277.732z M210.414,276.452
		c-0.097,0-0.19,0-0.287,0c-1.511-0.756-2.981-1.466-4.448-2.174c-0.093-0.145-0.19-0.238-0.283-0.331
		c-0.141-0.145-0.238-0.238-0.331-0.331c0-0.097,0-0.19,0-0.287c-0.141-0.141-0.238-0.234-0.331-0.331
		c-0.093-0.141-0.19-0.238-0.283-0.331c-0.238-0.238-0.473-0.424-0.663-0.614c-0.097-0.141-0.19-0.238-0.287-0.331
		c-0.141-0.097-0.235-0.19-0.331-0.287c-0.142-0.141-0.235-0.234-0.331-0.331c0-0.141,0-0.234,0-0.331
		c-0.473-0.614-0.562-0.588-1.228-3.123c-0.097-0.361-0.235-0.294-0.331-0.662c-0.19-0.707-0.268-1.146-0.331-1.891
		c-0.342-3.871,0.994-6.152,2.84-9.465c0.093-0.097,0.19-0.19,0.331-0.287c0.093-0.141,0.19-0.234,0.331-0.331
		c0.19-0.234,0.376-0.424,0.614-0.614c0.093-0.141,0.19-0.238,0.331-0.331c0.093-0.141,0.19-0.238,0.283-0.331
		c1.798-1.135,3.834-2.557,6.011-2.84c0.097,0,0.19,0,0.331,0c0.19-0.097,0.38-0.19,0.618-0.283
		c0.093-0.145,0.186-0.238,0.331-0.331c0.093,0,0.186,0,0.283,0c0.945-0.145,1.891-0.238,2.84-0.331c0.093,0,0.19,0,0.331,0
		c0.283,0,0.614,0,0.945,0c0.097,0,0.19,0,0.331,0c0.097-0.097,0.19-0.19,0.283-0.287c2.84-0.141,5.68-0.234,8.519-0.331
		c0.097,0,0.19,0,0.331,0c0.097-0.141,0.19-0.234,0.331-0.331c0.19,0,0.38,0,0.618,0c0.093,0,0.186,0,0.331,0
		c0.517,0,1.038,0,1.559,0c0.097,0,0.19,0,0.331,0c0.097,0,0.19,0,0.283,0c0.097-0.093,0.19-0.19,0.331-0.283
		c1.232-0.141,2.512-0.238,3.789-0.331c0.093,0,0.19,0,0.331,0c0.19-0.141,0.38-0.238,0.614-0.331
		c0.097-0.097,0.19-0.19,0.331-0.283c0.097,0,0.19,0,0.283,0c1.846-1.373,2.274-2.036,2.84-4.12c0.097,0,0.19,0,0.331,0
		c0-0.141,0-0.234,0-0.331c0-0.331,0-0.662,0-0.945c-0.141-0.097-0.234-0.19-0.331-0.283c-0.234-2.319-1.466-3.078-3.123-4.451
		c-0.141-0.093-0.235-0.186-0.331-0.283c-0.756-0.141-1.515-0.234-2.222-0.331c-0.097,0-0.19,0-0.287,0c-0.331,0-0.663,0-0.945,0
		c-0.141,0-0.238,0-0.331,0c-0.141,0.097-0.238,0.19-0.331,0.331c-0.238,0-0.428,0-0.618,0c-0.142,0-0.235,0-0.331,0
		c-0.234,0-0.424,0-0.614,0c-0.141,0-0.234,0-0.331,0c-0.093,0.097-0.19,0.19-0.283,0.283c-0.331,0-0.663,0-0.945,0
		c-0.145,0-0.238,0-0.331,0c-0.428,0.097-0.852,0.19-1.28,0.331c-0.093,0.097-0.19,0.19-0.283,0.331c-0.141,0-0.238,0-0.331,0
		c-0.662,0.097-1.277,0.19-1.894,0.287c-0.141,0.093-0.234,0.19-0.331,0.331c-1.18,0.283-2.319,0.614-3.454,0.945
		c-0.283-0.19-0.283-0.19-0.331,0c-0.663,0.283-1.277,0.614-1.894,0.945c-0.093,0.097-0.186,0.19-0.283,0.331
		c-1.894,0.428-1.894,0.428-4.448,1.563c-0.238-0.19-0.238-0.19-0.283,0c-0.145,0.097-0.238,0.19-0.331,0.331
		c-2.036,0.945-4.023,1.894-6.011,2.84l10.98-17.794c1.656,0.234,1.656,0.234,5.11,1.373c0.097,0.093,0.19,0.186,0.331,0.331
		c0.283,0,0.614,0,0.945,0c0,0.093,0,0.186,0,0.283c0.097,0,0.19,0,0.331,0c2.415,0.19,4.827,0.424,7.243,0.662
		c0.093,0,0.19,0,0.331,0c0.093-0.141,0.19-0.238,0.283-0.331c0.618,0,1.232,0,1.894,0c0.093,0,0.19,0,0.331,0
		c0.093-0.141,0.19-0.238,0.331-0.331c1.325-0.331,2.698-0.663,4.068-0.945c0.097,0,0.19,0,0.331,0c0.19,0,0.38,0,0.618,0
		c0.093,0,0.186,0,0.331,0c0.093-0.097,0.186-0.19,0.331-0.287c3.692,0.048,7.049,0.287,10.693,0.949c0.097,0,0.19,0,0.331,0
		c0.097,0.093,0.19,0.186,0.335,0.283c1.228,0.473,1.228,0.473,1.228,0.662c0.097,0,0.19,0,0.331,0
		c0.949,0.521,1.894,1.042,2.84,1.559c0.097,0,0.19,0,0.331,0c0.097,0.097,0.19,0.194,0.283,0.335
		c0.097,0.093,0.19,0.19,0.331,0.283c0.618,1.042,1.232,2.081,1.894,3.171c0,0.093,0,0.19,0,0.331
		c0.093,0.093,0.19,0.19,0.331,0.283c0,0.19,0,0.428,0,0.662c-0.19,0.19-0.19,0.19,0,0.283c0.048,10.697,0.093,21.442,0.141,32.183
		c1.184,2.226,2.635,4.719,3.819,6.941l-18.49,0.015c-0.283-0.186-0.283-0.186-0.331,0c-0.093,0-0.19,0-0.283,0
		c-0.435-0.435-0.659-0.331-1.277-0.331c-0.141,0-0.238,0-0.331,0c-0.331-0.234-0.666-0.424-0.949-0.614
		c-0.093-0.141-0.186-0.234-0.283-0.331c-0.141-0.093-0.238-0.19-0.331-0.283c-0.711-0.614-0.711-0.614-1.563-2.226
		c0-0.141,0-0.238,0-0.331c-0.141-0.093-0.235-0.19-0.331-0.283c0-0.331,0-0.662,0-0.949c0-0.141,0-0.234,0-0.331
		c0-0.756,0-1.511,0-2.222c-0.141,0-0.234,0-0.331,0c-0.093,0-0.19,0-0.283,0c-3.502,2.698-3.502,2.698-5.393,3.785
		c-0.097,0.093-0.19,0.19-0.287,0.331c-1.608,0.711-3.171,1.466-4.731,2.226c-0.287-0.19-0.287-0.19-0.331,0c0,0.093,0,0.19,0,0.283
		c-1.894,0.521-3.789,1.042-5.68,1.608c-0.283-0.186-0.283-0.186-0.331,0c-0.759,0.097-1.47,0.19-2.177,0.287
		c-0.141,0-0.238,0-0.331,0c-0.141,0-0.238,0-0.331,0c-0.097,0.093-0.19,0.19-0.287,0.331
		C215.807,277.542,213.064,277.445,210.414,276.452z M316.868,281.506l2.397-1.552c3.789-2.791,6.96-5.203,9.465-9.182
		c0-0.093,0-0.186,0-0.283c0.097-0.141,0.19-0.234,0.331-0.331c0.048-11.073,0.097-22.101,0.145-33.129
		c-1.139-2.222-2.226-4.448-3.312-6.625c9.133,0,18.267,0,27.449,0c-0.711,1.515-4.023,6.391-3.458,7.902c0,0.097,0,0.19,0,0.287
		c-0.19,0-0.19,0-0.19,28.394c-0.141,1.042-0.283,2.084-0.424,3.171c-0.142,0.097-0.238,0.19-0.331,0.331
		c-0.473,1.232-0.473,1.232-1.563,2.84c0,0.097,0,0.19,0,0.287c-0.142,0.093-0.235,0.186-0.331,0.331
		c-0.662,0.614-1.277,1.228-1.891,1.891c-0.141,0.097-0.238,0.19-0.331,0.331c-0.097,0.097-0.19,0.19-0.283,0.283
		c-1.373,0.852-2.747,1.705-4.12,2.557c-0.141,0-0.234,0-0.331,0c-1.277,0.38-2.553,0.804-3.785,1.232
		c-0.093,0.093-0.19,0.186-0.283,0.331c-0.949,0.093-1.894,0.186-2.84,0.331c-0.142,0.093-0.238,0.186-0.331,0.283
		c-0.141,0-0.238,0-0.331,0c-0.331,0-0.663,0-0.949,0c-0.093,0-0.19,0-0.283,0c-0.238,0-0.473,0-0.663,0c-0.093,0-0.19,0-0.283,0
		c-0.142,0.093-0.238,0.19-0.331,0.331c-1.184,0-2.319,0-3.454,0c-0.145,0.093-0.238,0.19-0.331,0.331
		c-2.557-0.097-5.114-0.19-7.667-0.283L316.868,281.506z"/>
</g>
</svg>
