<?xml version="1.0" encoding="UTF-8" standalone="no"?>
<svg
   width="154.99821"
   height="28.933001"
   viewBox="0 0 154.99821 28.932999"
   fill="none"
   class="h-[27.28px]"
   version="1.1"
   id="svg16"
   xmlns="http://www.w3.org/2000/svg"
   xmlns:svg="http://www.w3.org/2000/svg">
  <defs
     id="defs20" />
  <g
     id="g187"
     transform="translate(2.4991074,0.82546214)">
    <path
       fill-rule="evenodd"
       clip-rule="evenodd"
       d="M 15.4775,27.282 8.06559,14.3941 5.79318,27.282 H 0 L 4.64735,0.00886726 H 10.4481 L 8.42131,12.2276 20.4538,0.00886726 27.3899,0.00426483 14.615,13.3768 22.8852,27.282 Z"
       fill="white"
       id="path2"
       style="fill:#000000" />
    <path
       fill-rule="evenodd"
       clip-rule="evenodd"
       d="M 91.3439,27.282 89.2301,7.98239 81.2152,27.282 h -6.865 L 70.2402,7.62939e-5 H 76.441 L 78.7616,19.9287 87.154,7.62939e-5 h 6.7051 L 96.1085,20.017 104.979,7.62939e-5 h 6.062 L 98.2252,27.282 Z"
       fill="white"
       id="path4"
       style="fill:#000000" />
    <path
       fill-rule="evenodd"
       clip-rule="evenodd"
       d="m 122.167,27.282 -1.223,-6.431 h -10.961 l -3.504,6.431 H 100.28 C 105.315,18.4874 110.494,9.55257 116.079,7.62939e-5 h 5.965 L 128.614,27.282 Z m -9.358,-11.6027 h 7.003 l -2.154,-9.56129 z"
       fill="white"
       id="path6"
       style="fill:#000000" />
    <path
       fill-rule="evenodd"
       clip-rule="evenodd"
       d="m 46.6309,27.282 2.921,-16.1011 h 17.6457 l -1.0152,5.843 H 54.3223 l -0.9717,4.4155 h 12.0551 l -1.0103,5.8426 z"
       fill="white"
       id="path8"
       style="fill:#000000" />
    <path
       fill-rule="evenodd"
       clip-rule="evenodd"
       d="m 24.8936,27.282 2.921,-16.1011 h 17.6478 c 0,0 -0.7315,4.267 -1.011,5.843 H 32.5875 l -0.9742,4.4155 H 43.6667 L 42.659,27.282 Z"
       fill="white"
       id="path10"
       style="fill:#000000" />
    <path
       d="M 28.8809,5.80225 29.8011,0.0308247 H 68.484 L 67.5579,5.80225 Z"
       fill="white"
       id="path12"
       style="fill:#000000" />
    <path
       d="M 129.869,27.282 131.863,15.1152 124.397,7.62939e-5 h 6.457 L 135.719,9.78526 143.647,7.62939e-5 H 150 L 137.686,15.1905 135.657,27.282 Z"
       fill="white"
       id="path14"
       style="fill:#000000" />
  </g>
</svg>
